<?xml version="1.0" encoding="UTF-8" standalone="no"?><!DOCTYPE svg PUBLIC "-//W3C//DTD SVG 1.1//EN" "http://www.w3.org/Graphics/SVG/1.1/DTD/svg11.dtd"><svg width="100%" height="100%" viewBox="0 0 325 325" version="1.1" xmlns="http://www.w3.org/2000/svg" xmlns:xlink="http://www.w3.org/1999/xlink" xml:space="preserve" style="fill-rule:evenodd;clip-rule:evenodd;stroke-linejoin:round;stroke-miterlimit:1.41421;"><g id="Capa_1_copy"><g id="BackWheel"><path d="M49.842,195.954c4.088,6.046 11.006,10.028 18.828,10.028c0.257,0 0.495,-0.071 0.745,-0.084c2.895,-0.092 5.667,-0.683 8.193,-1.767c1.769,-0.763 3.367,-1.799 4.868,-2.962c5.373,-4.161 8.907,-10.596 8.907,-17.904c0,-12.524 -10.185,-22.718 -22.711,-22.718c-12.525,0 -22.713,10.194 -22.713,22.717c0,2.544 0.518,4.956 1.289,7.242c0.324,0.956 0.692,1.881 1.143,2.777c0.45,0.908 0.886,1.839 1.451,2.671Zm17.643,-29.914c0,0 0,-0.001 0,-0.001c0,-0.655 2.372,-0.655 2.372,0c0,0 0,0.001 0,0.001l-0.016,13.57c-0.001,0.218 0.115,0.419 0.304,0.528c0.188,0.109 0.421,0.109 0.609,0l11.744,-6.8c0,0 0.001,0 0.001,-0.001c0.567,-0.327 1.754,1.728 1.187,2.055c-0.001,0 -0.001,0.001 -0.002,0.001l-11.76,6.771c-0.189,0.108 -0.305,0.309 -0.305,0.527c0,0.218 0.116,0.419 0.305,0.527l11.76,6.771c0.001,0 0.001,0.001 0.002,0.001c0.567,0.327 -0.62,2.382 -1.187,2.054c0,0 -0.001,0 -0.001,0l-11.744,-6.8c-0.188,-0.109 -0.421,-0.109 -0.609,0c-0.189,0.109 -0.305,0.31 -0.304,0.527l0.016,13.571c0,0 0,0.001 0,0.001c0,0.655 -2.372,0.655 -2.372,0c0,0 0,-0.001 0,-0.001l0.016,-13.571c0.001,-0.217 -0.115,-0.418 -0.304,-0.527c-0.188,-0.109 -0.421,-0.109 -0.609,0l-11.744,6.8c0,0 -0.001,0 -0.001,0c-0.567,0.328 -1.753,-1.727 -1.186,-2.054c0,0 0,-0.001 0.001,-0.001l11.76,-6.771c0.189,-0.108 0.305,-0.309 0.305,-0.527c0,-0.218 -0.116,-0.419 -0.305,-0.527l-11.76,-6.771c-0.001,0 -0.001,-0.001 -0.001,-0.001c-0.567,-0.327 0.619,-2.382 1.186,-2.055c0,0.001 0.001,0.001 0.001,0.001l11.744,6.8c0.188,0.109 0.421,0.109 0.609,0c0.189,-0.109 0.305,-0.31 0.304,-0.528l-0.016,-13.57Z"/></g><g id="FrontWheel"><path d="M250.842,200.954c4.088,6.046 11.006,10.028 18.828,10.028c0.257,0 0.495,-0.071 0.745,-0.084c2.895,-0.092 5.667,-0.683 8.193,-1.767c1.769,-0.763 3.367,-1.799 4.868,-2.962c5.373,-4.161 8.907,-10.596 8.907,-17.904c0,-12.524 -10.185,-22.718 -22.711,-22.718c-12.525,0 -22.713,10.194 -22.713,22.717c0,2.544 0.518,4.956 1.289,7.242c0.324,0.956 0.692,1.881 1.143,2.777c0.45,0.908 0.886,1.839 1.451,2.671Zm17.643,-29.34c0,-0.001 0,-0.001 0,-0.002c0,-0.655 2.372,-0.655 2.372,0c0,0.001 0,0.001 0,0.002l-0.016,13.57c-0.001,0.218 0.115,0.419 0.304,0.528c0.188,0.108 0.421,0.108 0.609,-0.001l11.744,-6.799c0,-0.001 0.001,-0.001 0.001,-0.001c0.567,-0.327 1.754,1.727 1.187,2.055c-0.001,0 -0.001,0 -0.002,0l-11.76,6.771c-0.189,0.109 -0.305,0.31 -0.305,0.528c0,0.217 0.116,0.418 0.305,0.527l11.76,6.771c0.001,0 0.001,0 0.002,0c0.567,0.328 -0.62,2.382 -1.187,2.055c0,0 -0.001,0 -0.001,-0.001l-11.744,-6.799c-0.188,-0.109 -0.421,-0.109 -0.609,-0.001c-0.189,0.109 -0.305,0.31 -0.304,0.528l0.016,13.57c0,0.001 0,0.001 0,0.002c0,0.655 -2.372,0.655 -2.372,0c0,-0.001 0,-0.001 0,-0.002l0.016,-13.57c0.001,-0.218 -0.115,-0.419 -0.304,-0.528c-0.188,-0.108 -0.421,-0.108 -0.609,0.001l-11.744,6.799c0,0.001 -0.001,0.001 -0.001,0.001c-0.567,0.327 -1.753,-1.727 -1.186,-2.055c0,0 0,0 0.001,0l11.76,-6.771c0.189,-0.109 0.305,-0.31 0.305,-0.527c0,-0.218 -0.116,-0.419 -0.305,-0.528l-11.76,-6.771c-0.001,0 -0.001,0 -0.001,0c-0.567,-0.328 0.619,-2.382 1.186,-2.055c0,0 0.001,0 0.001,0.001l11.744,6.799c0.188,0.109 0.421,0.109 0.609,0.001c0.189,-0.109 0.305,-0.31 0.304,-0.528l-0.016,-13.57Z"/></g><path d="M317.833,197.111c3.346,-11.147 2.455,-20.541 -2.65,-27.944c-9.715,-14.064 -31.308,-15.865 -35.43,-16.077l-8.077,-4.352l-0.528,-0.217c-8.969,-2.561 -42.745,-3.591 -47.805,-3.733c-7.979,-3.936 -14.607,-7.62 -20.475,-10.879c-20.536,-11.413 -34.107,-18.958 -72.959,-18.958c-47.051,0 -85.447,20.395 -90.599,23.25c-2.812,0.212 -5.297,0.404 -7.646,0.59l-6.455,-8.733l7.34,0.774c2.91,0.306 4.267,-1.243 3.031,-3.459c-1.24,-2.216 -4.604,-4.262 -7.521,-4.57l-23.949,-2.524c-2.908,-0.305 -4.267,1.243 -3.024,3.459c1.24,2.216 4.603,4.262 7.519,4.57l3.681,0.386l8.166,11.05c-13.823,1.315 -13.823,2.139 -13.823,4.371c0,18.331 -2.343,22.555 -2.832,23.369l-3.797,-3.041l0,19.019l2.248,2.892c-0.088,2.774 0.821,5.321 2.674,7.432c5.979,6.803 19.713,7 21.256,7c4.634,0 14.211,-2.365 20.78,-4.152c-0.456,-0.781 -0.929,-1.553 -1.3,-2.393c-0.36,-0.809 -0.604,-1.668 -0.887,-2.518c-0.811,-2.484 -1.36,-5.097 -1.36,-7.845c0,-14.073 11.447,-25.517 25.515,-25.517c14.068,0 25.52,11.446 25.52,25.521c0,6.068 -2.221,11.578 -5.771,15.966c-0.753,0.926 -1.527,1.827 -2.397,2.641c-1.021,0.957 -2.089,1.859 -3.254,2.641c29.332,0.109 112.164,0.516 168.708,1.771c-0.828,-0.822 -1.533,-1.771 -2.235,-2.703c-0.652,-0.854 -1.224,-1.75 -1.763,-2.688c-2.164,-3.743 -3.5,-8.024 -3.5,-12.655c0,-14.068 11.454,-25.513 25.52,-25.513c14.063,0 25.518,11.449 25.518,25.513c0,5.127 -1.553,9.875 -4.15,13.879c-0.605,0.922 -1.326,1.754 -2.04,2.594c-0.782,0.922 -1.616,1.781 -2.527,2.584c5.209,0.154 9.699,0.232 13.546,0.232c19.563,0 23.385,-1.688 23.861,-5.019c0.153,-1.018 0.51,-3.523 -6.129,-6.014Zm-179.265,-74.82l0,22.982l70.59,0c-0.002,0 -39.578,-30.322 -70.59,-22.982Z" style="fill:url(#_Linear1);"/></g><defs><linearGradient id="_Linear1" x1="0" y1="0" x2="1" y2="0" gradientUnits="userSpaceOnUse" gradientTransform="matrix(307,84.2629,-84.2629,307,9,121.145)"><stop offset="0%" style="stop-color:#ff4864;stop-opacity:1"/><stop offset="100%" style="stop-color:#ff6c64;stop-opacity:1"/></linearGradient></defs></svg>