<?xml version="1.0" encoding="utf-8"?>
<!-- Generator: Adobe Illustrator 14.0.0, SVG Export Plug-In . SVG Version: 6.00 Build 43363)  -->
<!DOCTYPE svg PUBLIC "-//W3C//DTD SVG 1.1//EN" "http://www.w3.org/Graphics/SVG/1.1/DTD/svg11.dtd">
<svg version="1.1" id="Layer_1" xmlns="http://www.w3.org/2000/svg" xmlns:xlink="http://www.w3.org/1999/xlink" x="0px" y="0px"
	 width="324.018px" height="324.016px" viewBox="0 0 324.018 324.016" enable-background="new 0 0 324.018 324.016"
	 xml:space="preserve">
<g id="Layer_5">
	<rect x="-69.871" y="114.951" fill="#FCECDD" width="393.89" height="94.117"/>
</g>
<g id="Capa_1" display="none">
	<g display="inline">
		<g>
			<path d="M317.833,197.111c3.346-11.147,2.455-20.541-2.65-27.944c-9.715-14.064-31.308-15.865-35.43-16.077l-8.077-4.352
				l-0.528-0.217c-8.969-2.561-42.745-3.591-47.805-3.733c-7.979-3.936-14.607-7.62-20.475-10.879
				c-20.536-11.413-34.107-18.958-72.959-18.958c-47.051,0-85.447,20.395-90.599,23.25c-2.812,0.212-5.297,0.404-7.646,0.59
				l-6.455-8.733l7.34,0.774c2.91,0.306,4.267-1.243,3.031-3.459c-1.24-2.216-4.604-4.262-7.521-4.57L4.11,120.279
				c-2.908-0.305-4.267,1.243-3.024,3.459c1.24,2.216,4.603,4.262,7.519,4.57l3.681,0.386l8.166,11.05
				c-13.823,1.315-13.823,2.139-13.823,4.371c0,18.331-2.343,22.555-2.832,23.369L0,164.443v19.019l2.248,2.892
				c-0.088,2.774,0.821,5.321,2.674,7.432c5.979,6.803,19.713,7,21.256,7c4.634,0,14.211-2.365,20.78-4.152
				c-0.456-0.781-0.929-1.553-1.3-2.393c-0.36-0.809-0.604-1.668-0.887-2.518c-0.811-2.484-1.36-5.097-1.36-7.845
				c0-14.073,11.447-25.517,25.515-25.517s25.52,11.446,25.52,25.521c0,6.068-2.221,11.578-5.771,15.966
				c-0.753,0.926-1.527,1.827-2.397,2.641c-1.021,0.957-2.089,1.859-3.254,2.641c29.332,0.109,112.164,0.516,168.708,1.771
				c-0.828-0.822-1.533-1.771-2.235-2.703c-0.652-0.854-1.224-1.75-1.763-2.688c-2.164-3.743-3.5-8.024-3.5-12.655
				c0-14.068,11.454-25.513,25.52-25.513c14.063,0,25.518,11.449,25.518,25.513c0,5.127-1.553,9.875-4.15,13.879
				c-0.605,0.922-1.326,1.754-2.04,2.594c-0.782,0.922-1.616,1.781-2.527,2.584c5.209,0.154,9.699,0.232,13.546,0.232
				c19.563,0,23.385-1.688,23.861-5.019C324.115,202.107,324.472,199.602,317.833,197.111z"/>
			<path d="M52.17,195.174c3.638,5.381,9.794,8.924,16.756,8.924c0.228,0,0.44-0.063,0.663-0.074
				c2.576-0.082,5.043-0.608,7.291-1.573c1.574-0.679,2.996-1.601,4.332-2.636c4.782-3.703,7.927-9.43,7.927-15.934
				c0-11.145-9.064-20.217-20.212-20.217c-11.146,0-20.213,9.072-20.213,20.217c0,2.264,0.461,4.41,1.147,6.445
				c0.288,0.85,0.616,1.674,1.017,2.471C51.279,193.605,51.667,194.434,52.17,195.174z"/>
			<path d="M269.755,209.068c2.656,0,5.173-0.549,7.503-1.481c1.589-0.642,3.06-1.489,4.422-2.494
				c1.035-0.768,1.988-1.616,2.863-2.559c3.34-3.604,5.432-8.39,5.432-13.683c0-11.145-9.071-20.209-20.215-20.209
				s-20.216,9.064-20.216,20.209c0,4.879,1.812,9.301,4.702,12.801c0.816,0.99,1.719,1.892,2.708,2.714
				c1.311,1.088,2.729,2.024,4.293,2.756C263.836,208.333,266.704,209.068,269.755,209.068z"/>
		</g>
	</g>
</g>
<g id="Layer_3" display="none">
	
		<image display="inline" overflow="visible" enable-background="new    " width="1200" height="630" xlink:href="E4198957.jpg"  transform="matrix(7.338804e-004 -0.0778 0.0778 7.338804e-004 -39.4485 219.1328)">
	</image>
</g>
<g id="Layer_4" display="none">
	<g display="inline">
		<path d="M-74.318,167.139c-4.364-0.447-8.823-0.8-10.07-4.365c12.263,3.531,16.684-9.459,31.217-7.383
			c5.934,0.848,9.958,5.116,13.426,9.399c1.528,1.886,4.462,4.688,4.364,8.057c-0.136,4.577-5.25,8.836-8.057,11.411
			c-5.373,4.933-11.68,8.396-22.152,7.384c-9.127-0.884-16.532-6.089-23.496-10.404c-7.129-4.42-14.063-10.144-23.832-10.07
			c-2.989,0.023-6.433,1.379-7.385,1.344c3.948-3.014,7.236-5.172,12.42-5.707C-96.275,165.604-82.518,173.102-74.318,167.139z"/>
	</g>
</g>
<g id="Layer_6">
	<path fill="#FBB365" d="M-8.248,155.266c0,0,13.436-3.412,23.23,16.675c0,0-0.798,12.132-20.049,19.233
		c0,0-12.192,2.767-22.344-3.192l-16.581-10.077c0,0-11.979-7.011-16.958-6.597c-4.979,0.414-8.923,1.303-8.923,1.303
		s7.817-5.631,12.419-5.706c4.601-0.075,6.748,0.129,20.835,2.36c0,0,8.028,1.527,12.73-2.024c0,0-9.222,0.403-10.069-4.364
		c0,0,5.882,1.48,10.182-0.755C-19.475,159.887-18.29,158.002-8.248,155.266z"/>
</g>
<g id="Capa_1_copy">
	<path fill="#EF4B66" d="M317.833,197.111c3.346-11.147,2.455-20.541-2.65-27.944c-9.715-14.064-31.308-15.865-35.43-16.077
		l-8.077-4.352l-0.528-0.217c-8.969-2.561-42.745-3.591-47.805-3.733c-7.979-3.936-14.607-7.62-20.475-10.879
		c-20.536-11.413-34.107-18.958-72.959-18.958c-47.051,0-85.447,20.395-90.599,23.25c-2.812,0.212-5.297,0.404-7.646,0.59
		l-6.455-8.733l7.34,0.774c2.91,0.306,4.267-1.243,3.031-3.459c-1.24-2.216-4.604-4.262-7.521-4.57L4.11,120.279
		c-2.908-0.305-4.267,1.243-3.024,3.459c1.24,2.216,4.603,4.262,7.519,4.57l3.681,0.386l8.166,11.05
		c-13.823,1.315-13.823,2.139-13.823,4.371c0,18.331-2.343,22.555-2.832,23.369L0,164.443v19.019l2.248,2.892
		c-0.088,2.774,0.821,5.321,2.674,7.432c5.979,6.803,19.713,7,21.256,7c4.634,0,14.211-2.365,20.78-4.152
		c-0.456-0.781-0.929-1.553-1.3-2.393c-0.36-0.809-0.604-1.668-0.887-2.518c-0.811-2.484-1.36-5.097-1.36-7.845
		c0-14.073,11.447-25.517,25.515-25.517s25.52,11.446,25.52,25.521c0,6.068-2.221,11.578-5.771,15.966
		c-0.753,0.926-1.527,1.827-2.397,2.641c-1.021,0.957-2.089,1.859-3.254,2.641c29.332,0.109,112.164,0.516,168.708,1.771
		c-0.828-0.822-1.533-1.771-2.235-2.703c-0.652-0.854-1.224-1.75-1.763-2.688c-2.164-3.743-3.5-8.024-3.5-12.655
		c0-14.068,11.454-25.513,25.52-25.513c14.063,0,25.518,11.449,25.518,25.513c0,5.127-1.553,9.875-4.15,13.879
		c-0.605,0.922-1.326,1.754-2.04,2.594c-0.782,0.922-1.616,1.781-2.527,2.584c5.209,0.154,9.699,0.232,13.546,0.232
		c19.563,0,23.385-1.688,23.861-5.019C324.115,202.107,324.472,199.602,317.833,197.111z"/>
	<path d="M52.17,195.174c3.638,5.381,9.794,8.924,16.756,8.924c0.228,0,0.44-0.063,0.663-0.074c2.576-0.082,5.043-0.608,7.291-1.573
		c1.574-0.679,2.996-1.601,4.332-2.636c4.782-3.703,7.927-9.43,7.927-15.934c0-11.145-9.064-20.217-20.212-20.217
		c-11.146,0-20.213,9.072-20.213,20.217c0,2.264,0.461,4.41,1.147,6.445c0.288,0.85,0.616,1.674,1.017,2.471
		C51.279,193.605,51.667,194.434,52.17,195.174z"/>
	<path d="M269.755,209.068c2.656,0,5.173-0.549,7.503-1.481c1.589-0.642,3.06-1.489,4.422-2.494
		c1.035-0.768,1.988-1.616,2.863-2.559c3.34-3.604,5.432-8.39,5.432-13.683c0-11.145-9.071-20.209-20.215-20.209
		s-20.216,9.064-20.216,20.209c0,4.879,1.812,9.301,4.702,12.801c0.816,0.99,1.719,1.892,2.708,2.714
		c1.311,1.088,2.729,2.024,4.293,2.756C263.836,208.333,266.704,209.068,269.755,209.068z"/>
	<path d="M89.383,168.643c0,0,6.95,13.547,4.549,20.213c-2.4,6.666,150.299-0.002,150.299-0.002s-0.132-4.973,5.313-15.555
		C254.004,164.63,89.383,168.643,89.383,168.643z"/>
	<path d="M138.568,122.291v22.982h70.59C209.156,145.273,169.58,114.951,138.568,122.291z"/>
</g>
</svg>
