<?xml version="1.0" encoding="UTF-8" standalone="no"?><!DOCTYPE svg PUBLIC "-//W3C//DTD SVG 1.1//EN" "http://www.w3.org/Graphics/SVG/1.1/DTD/svg11.dtd"><svg width="100%" height="100%" viewBox="0 0 245 74" version="1.1" xmlns="http://www.w3.org/2000/svg" xmlns:xlink="http://www.w3.org/1999/xlink" xml:space="preserve" style="fill-rule:evenodd;clip-rule:evenodd;stroke-linejoin:round;stroke-miterlimit:1.41421;"><g id="Capa_1_copy"><g id="BackWheel"><path d="M51.176,38.879c0,0 0,0 0,-0.001c0,-0.491 1.78,-0.491 1.78,0c0,0.001 0,0.001 0,0.001l-0.013,10.178c0,0.163 0.087,0.314 0.228,0.396c0.142,0.081 0.316,0.081 0.457,0l8.808,-5.1c0,0 0.001,-0.001 0.001,-0.001c0.425,-0.245 1.315,1.296 0.89,1.541c-0.001,0 -0.001,0.001 -0.001,0.001l-8.821,5.078c-0.141,0.081 -0.228,0.232 -0.228,0.395c0,0.164 0.087,0.314 0.228,0.396l8.821,5.078c0,0 0,0 0.001,0.001c0.425,0.245 -0.465,1.786 -0.89,1.541c0,-0.001 -0.001,-0.001 -0.001,-0.001l-8.808,-5.1c-0.141,-0.081 -0.315,-0.082 -0.457,0c-0.141,0.082 -0.228,0.233 -0.228,0.396l0.013,10.178c0,0 0,0 0,0.001c0,0.491 -1.78,0.491 -1.78,0c0,-0.001 0,-0.001 0,-0.001l0.013,-10.178c0,-0.163 -0.087,-0.314 -0.229,-0.396c-0.141,-0.082 -0.315,-0.081 -0.456,0l-8.808,5.1c-0.001,0 -0.001,0 -0.001,0.001c-0.426,0.245 -1.315,-1.296 -0.89,-1.541c0,-0.001 0.001,-0.001 0.001,-0.001l8.82,-5.078c0.142,-0.082 0.229,-0.232 0.229,-0.396c0,-0.163 -0.087,-0.314 -0.229,-0.395l-8.82,-5.078c0,0 -0.001,-0.001 -0.001,-0.001c-0.425,-0.245 0.464,-1.786 0.89,-1.541c0,0 0,0.001 0.001,0.001l8.808,5.1c0.141,0.081 0.315,0.081 0.456,0c0.142,-0.082 0.229,-0.233 0.229,-0.396l-0.013,-10.178Z" style="fill:url(#_Linear1);stroke:url(#_Linear2);stroke-width:1px;"/></g><g id="BackWheel1"><path d="M201.926,43.059c0,0 0,0 0,-0.001c0,-0.491 1.78,-0.491 1.78,0c0,0.001 0,0.001 0,0.001l-0.013,10.178c0,0.164 0.087,0.314 0.228,0.396c0.142,0.082 0.316,0.082 0.457,0l8.808,-5.1c0,0 0.001,0 0.001,-0.001c0.425,-0.245 1.315,1.296 0.89,1.541c-0.001,0.001 -0.001,0.001 -0.001,0.001l-8.821,5.078c-0.141,0.082 -0.228,0.232 -0.228,0.396c0,0.163 0.087,0.314 0.228,0.395l8.821,5.078c0,0 0,0.001 0.001,0.001c0.425,0.245 -0.465,1.786 -0.89,1.541c0,0 -0.001,-0.001 -0.001,-0.001l-8.808,-5.099c-0.141,-0.082 -0.315,-0.082 -0.457,-0.001c-0.141,0.082 -0.228,0.233 -0.228,0.396l0.013,10.178c0,0 0,0.001 0,0.001c0,0.491 -1.78,0.491 -1.78,0c0,0 0,-0.001 0,-0.001l0.013,-10.178c0,-0.163 -0.087,-0.314 -0.229,-0.396c-0.141,-0.081 -0.315,-0.081 -0.456,0.001l-8.808,5.099c-0.001,0 -0.001,0.001 -0.001,0.001c-0.426,0.245 -1.315,-1.296 -0.89,-1.541c0,0 0.001,-0.001 0.001,-0.001l8.82,-5.078c0.142,-0.081 0.229,-0.232 0.229,-0.395c0,-0.164 -0.087,-0.314 -0.229,-0.396l-8.82,-5.078c0,0 -0.001,0 -0.001,-0.001c-0.425,-0.245 0.464,-1.786 0.89,-1.541c0,0.001 0,0.001 0.001,0.001l8.808,5.1c0.141,0.082 0.315,0.082 0.456,0c0.142,-0.082 0.229,-0.232 0.229,-0.396l-0.013,-10.178Z" style="fill:url(#_Linear3);stroke:url(#_Linear4);stroke-width:1px;"/></g><path d="M238.937,62.182c2.51,-8.36 1.841,-15.405 -1.987,-20.958c-7.286,-10.548 -23.481,-11.898 -26.573,-12.057l-6.057,-3.264l-0.397,-0.163c-6.726,-1.921 -32.058,-2.693 -35.853,-2.8c-5.985,-2.952 -10.956,-5.715 -15.357,-8.159c-15.401,-8.56 -25.58,-14.219 -54.719,-14.219c-35.288,0 -64.085,15.297 -67.949,17.438c-2.109,0.159 -3.973,0.303 -5.735,0.442l-4.841,-6.549l5.505,0.58c2.183,0.23 3.2,-0.932 2.273,-2.594c-0.93,-1.662 -3.453,-3.197 -5.64,-3.428l-17.962,-1.893c-2.181,-0.228 -3.2,0.933 -2.268,2.595c0.93,1.662 3.452,3.196 5.639,3.427l2.761,0.29l6.124,8.287c-10.367,0.986 -10.367,1.604 -10.367,3.279c0,13.748 -1.757,16.916 -2.124,17.526l-2.848,-2.281l0,14.265l1.686,2.169c-0.066,2.08 0.616,3.991 2.006,5.574c4.484,5.102 14.785,5.25 15.942,5.25c3.475,0 10.658,-1.774 15.585,-3.114c-0.342,-0.586 -0.697,-1.165 -0.975,-1.795c-0.27,-0.607 -0.453,-1.251 -0.665,-1.888c-0.609,-1.863 -1.02,-3.823 -1.02,-5.884c0,-10.555 8.585,-19.138 19.136,-19.138c10.551,0 19.14,8.585 19.14,19.141c0,4.551 -1.666,8.683 -4.328,11.974c-0.565,0.695 -1.146,1.371 -1.798,1.981c-0.766,0.718 -1.567,1.394 -2.441,1.981c21.999,0.081 84.123,0.387 126.531,1.328c-0.621,-0.617 -1.149,-1.328 -1.676,-2.027c-0.489,-0.641 -0.918,-1.313 -1.322,-2.016c-1.623,-2.807 -2.625,-6.018 -2.625,-9.491c0,-10.552 8.59,-19.135 19.14,-19.135c10.547,0 19.138,8.587 19.138,19.135c0,3.845 -1.164,7.406 -3.112,10.409c-0.454,0.691 -0.995,1.315 -1.53,1.945c-0.587,0.692 -1.212,1.336 -1.895,1.938c3.906,0.116 7.274,0.174 10.159,0.174c14.672,0 17.539,-1.266 17.896,-3.764c0.115,-0.764 0.382,-2.642 -4.597,-4.511Zm-134.449,-56.115l0,17.237l52.943,0c-0.002,0 -29.684,-22.741 -52.943,-17.237Z" style="fill:url(#_Linear5);"/></g><defs><linearGradient id="_Linear1" x1="0" y1="0" x2="1" y2="0" gradientUnits="userSpaceOnUse" gradientTransform="matrix(22.7463,0,0,25.7151,40.6926,51.3674)"><stop offset="0%" style="stop-color:#ff4864;stop-opacity:1"/><stop offset="100%" style="stop-color:#ff6c64;stop-opacity:1"/></linearGradient><linearGradient id="_Linear2" x1="0" y1="0" x2="1" y2="0" gradientUnits="userSpaceOnUse" gradientTransform="matrix(243.017,0,0,72.0229,0.5625,36.5739)"><stop offset="0%" style="stop-color:#ff4864;stop-opacity:1"/><stop offset="100%" style="stop-color:#ff6c64;stop-opacity:1"/></linearGradient><linearGradient id="_Linear3" x1="0" y1="0" x2="1" y2="0" gradientUnits="userSpaceOnUse" gradientTransform="matrix(22.7463,0,0,25.7151,191.443,55.5476)"><stop offset="0%" style="stop-color:#ff4864;stop-opacity:1"/><stop offset="100%" style="stop-color:#ff6c64;stop-opacity:1"/></linearGradient><linearGradient id="_Linear4" x1="0" y1="0" x2="1" y2="0" gradientUnits="userSpaceOnUse" gradientTransform="matrix(243.017,0,0,72.0229,151.313,40.7541)"><stop offset="0%" style="stop-color:#ff4864;stop-opacity:1"/><stop offset="100%" style="stop-color:#ff6c64;stop-opacity:1"/></linearGradient><linearGradient id="_Linear5" x1="0" y1="0" x2="1" y2="0" gradientUnits="userSpaceOnUse" gradientTransform="matrix(243.017,0,0,69.8947,0.5625,35.5099)"><stop offset="0%" style="stop-color:#ff4864;stop-opacity:1"/><stop offset="100%" style="stop-color:#ff6c64;stop-opacity:1"/></linearGradient></defs></svg>