<?xml version="1.0" encoding="UTF-8" standalone="no"?><!DOCTYPE svg PUBLIC "-//W3C//DTD SVG 1.1//EN" "http://www.w3.org/Graphics/SVG/1.1/DTD/svg11.dtd"><svg width="100%" height="100%" viewBox="0 0 261 355" version="1.1" xmlns="http://www.w3.org/2000/svg" xmlns:xlink="http://www.w3.org/1999/xlink" xml:space="preserve" style="fill-rule:evenodd;clip-rule:evenodd;stroke-linejoin:round;stroke-miterlimit:1.41421;"><rect id="Artboard1" x="0" y="0" width="260.066" height="354.5" style="fill:none;"/><clipPath id="_clip1"><rect x="0" y="0" width="260.066" height="354.5"/></clipPath><g clip-path="url(#_clip1)"><path d="M260.066,13.003c0,-7.176 -5.827,-13.003 -13.004,-13.003l-234.059,0c-7.176,0 -13.003,5.827 -13.003,13.003l0,328.494c0,7.176 5.827,13.003 13.003,13.003l234.059,0c7.177,0 13.004,-5.827 13.004,-13.003l0,-328.494Z" style="fill:#ebebeb;"/><path d="M247.23,0.001l0.168,0.003l0.167,0.006l0.166,0.007l0.166,0.009l0.165,0.012l0.165,0.014l0.164,0.015l0.164,0.018l0.163,0.02l0.162,0.021l0.161,0.024l0.162,0.026l0.16,0.027l0.16,0.03l0.159,0.031l0.158,0.034l0.157,0.035l0.157,0.038l0.156,0.039l0.156,0.041l0.154,0.043l0.154,0.044l0.153,0.047l0.153,0.048l0.151,0.051l0.151,0.052l0.149,0.054l0.149,0.055l0.148,0.058l0.147,0.059l0.147,0.061l0.145,0.062l0.145,0.064l0.143,0.066l0.143,0.068l0.141,0.069l0.141,0.071l0.14,0.073l0.138,0.074l0.138,0.076l0.137,0.078l0.135,0.079l0.135,0.081l0.133,0.082l0.133,0.084l0.131,0.085l0.13,0.087l0.13,0.088l0.128,0.09l0.127,0.092l0.125,0.093l0.125,0.094l0.123,0.096l0.123,0.097l0.121,0.099l0.119,0.1l0.119,0.102l0.117,0.102l0.117,0.105l0.114,0.105l0.114,0.107l0.112,0.109l0.111,0.109l0.11,0.111l0.108,0.113l0.107,0.113l0.106,0.115l0.104,0.116l0.103,0.118l0.102,0.118l0.1,0.12l0.098,0.121l0.098,0.122l0.096,0.124l0.094,0.124l0.093,0.126l0.091,0.127l0.09,0.128l0.089,0.129l0.086,0.13l0.086,0.132l0.084,0.132l0.082,0.134l0.081,0.134l0.079,0.136l0.077,0.137l0.076,0.137l0.075,0.139l0.072,0.14l0.071,0.14l0.07,0.142l0.067,0.142l0.066,0.144l0.064,0.144l0.063,0.146l0.061,0.146l0.059,0.147l0.057,0.148l0.056,0.149l0.054,0.15l0.052,0.151l0.05,0.151l0.049,0.152l0.046,0.153l0.045,0.154l0.043,0.155l0.041,0.155l0.039,0.156l0.037,0.157l0.036,0.158l0.033,0.158l0.032,0.159l0.029,0.16l0.028,0.16l0.026,0.161l0.023,0.162l0.022,0.162l0.02,0.163l0.017,0.164l0.016,0.164l0.014,0.164l0.011,0.166l0.01,0.166l0.007,0.166l0.005,0.167l0.004,0.167l0.001,0.168l0,328.494l-0.001,0.168l-0.004,0.167l-0.005,0.167l-0.007,0.166l-0.01,0.166l-0.011,0.166l-0.014,0.164l-0.016,0.164l-0.017,0.164l-0.02,0.163l-0.022,0.162l-0.023,0.162l-0.026,0.161l-0.028,0.16l-0.029,0.16l-0.032,0.159l-0.033,0.158l-0.036,0.158l-0.037,0.157l-0.039,0.156l-0.041,0.155l-0.043,0.155l-0.045,0.154l-0.046,0.153l-0.049,0.152l-0.05,0.151l-0.052,0.151l-0.054,0.15l-0.056,0.149l-0.057,0.148l-0.059,0.147l-0.061,0.146l-0.063,0.146l-0.064,0.144l-0.066,0.144l-0.067,0.142l-0.07,0.142l-0.071,0.14l-0.072,0.14l-0.075,0.139l-0.076,0.137l-0.077,0.137l-0.079,0.136l-0.081,0.134l-0.082,0.134l-0.084,0.132l-0.086,0.132l-0.086,0.13l-0.089,0.129l-0.09,0.128l-0.091,0.127l-0.093,0.126l-0.094,0.124l-0.096,0.124l-0.098,0.122l-0.098,0.121l-0.1,0.12l-0.102,0.118l-0.103,0.118l-0.104,0.116l-0.106,0.115l-0.107,0.113l-0.108,0.113l-0.11,0.111l-0.111,0.109l-0.112,0.109l-0.114,0.107l-0.114,0.105l-0.117,0.105l-0.117,0.102l-0.119,0.102l-0.119,0.1l-0.121,0.099l-0.123,0.097l-0.123,0.096l-0.125,0.094l-0.125,0.093l-0.127,0.092l-0.128,0.09l-0.13,0.088l-0.13,0.087l-0.131,0.085l-0.133,0.084l-0.133,0.082l-0.135,0.081l-0.135,0.079l-0.137,0.078l-0.138,0.076l-0.138,0.074l-0.14,0.073l-0.141,0.071l-0.141,0.069l-0.143,0.068l-0.143,0.066l-0.145,0.064l-0.145,0.062l-0.147,0.061l-0.147,0.059l-0.148,0.058l-0.149,0.055l-0.149,0.054l-0.151,0.052l-0.151,0.051l-0.153,0.048l-0.153,0.047l-0.154,0.044l-0.154,0.043l-0.156,0.041l-0.156,0.039l-0.157,0.038l-0.157,0.035l-0.158,0.034l-0.159,0.031l-0.16,0.03l-0.16,0.027l-0.162,0.026l-0.161,0.024l-0.162,0.021l-0.163,0.02l-0.164,0.018l-0.164,0.015l-0.165,0.014l-0.165,0.012l-0.166,0.009l-0.166,0.007l-0.167,0.006l-0.168,0.003l-0.168,0.001l-234.059,0l-0.168,-0.001l-0.167,-0.003l-0.167,-0.006l-0.166,-0.007l-0.166,-0.009l-0.166,-0.012l-0.164,-0.014l-0.164,-0.015l-0.164,-0.018l-0.163,-0.02l-0.162,-0.021l-0.162,-0.024l-0.161,-0.026l-0.16,-0.027l-0.16,-0.03l-0.159,-0.031l-0.158,-0.034l-0.158,-0.035l-0.157,-0.038l-0.156,-0.039l-0.155,-0.041l-0.155,-0.043l-0.154,-0.044l-0.153,-0.047l-0.152,-0.048l-0.151,-0.051l-0.151,-0.052l-0.15,-0.054l-0.149,-0.055l-0.148,-0.058l-0.147,-0.059l-0.146,-0.061l-0.146,-0.062l-0.144,-0.064l-0.144,-0.066l-0.142,-0.068l-0.142,-0.069l-0.14,-0.071l-0.14,-0.073l-0.139,-0.074l-0.137,-0.076l-0.137,-0.078l-0.136,-0.079l-0.134,-0.081l-0.134,-0.082l-0.132,-0.084l-0.132,-0.085l-0.13,-0.087l-0.129,-0.088l-0.128,-0.09l-0.127,-0.092l-0.126,-0.093l-0.124,-0.094l-0.124,-0.096l-0.122,-0.097l-0.121,-0.099l-0.12,-0.1l-0.118,-0.102l-0.118,-0.102l-0.116,-0.105l-0.115,-0.105l-0.113,-0.107l-0.113,-0.109l-0.111,-0.109l-0.109,-0.111l-0.109,-0.113l-0.107,-0.113l-0.105,-0.115l-0.105,-0.116l-0.102,-0.118l-0.102,-0.118l-0.1,-0.12l-0.099,-0.121l-0.097,-0.122l-0.096,-0.124l-0.094,-0.124l-0.093,-0.126l-0.092,-0.127l-0.09,-0.128l-0.088,-0.129l-0.087,-0.13l-0.085,-0.132l-0.084,-0.132l-0.082,-0.134l-0.081,-0.134l-0.079,-0.136l-0.078,-0.137l-0.076,-0.137l-0.074,-0.139l-0.073,-0.14l-0.071,-0.14l-0.069,-0.142l-0.068,-0.142l-0.066,-0.144l-0.064,-0.144l-0.062,-0.146l-0.061,-0.146l-0.059,-0.147l-0.058,-0.148l-0.055,-0.149l-0.054,-0.15l-0.052,-0.151l-0.051,-0.151l-0.048,-0.152l-0.047,-0.153l-0.044,-0.154l-0.043,-0.155l-0.041,-0.155l-0.039,-0.156l-0.038,-0.157l-0.035,-0.158l-0.034,-0.158l-0.031,-0.159l-0.03,-0.16l-0.027,-0.16l-0.026,-0.161l-0.024,-0.162l-0.021,-0.162l-0.02,-0.163l-0.018,-0.164l-0.015,-0.164l-0.014,-0.164l-0.012,-0.166l-0.009,-0.166l-0.007,-0.166l-0.006,-0.167l-0.003,-0.167l-0.001,-0.168l0,-328.494l0.001,-0.168l0.003,-0.167l0.006,-0.167l0.007,-0.166l0.009,-0.166l0.012,-0.166l0.014,-0.164l0.015,-0.164l0.018,-0.164l0.02,-0.163l0.021,-0.162l0.024,-0.162l0.026,-0.161l0.027,-0.16l0.03,-0.16l0.031,-0.159l0.034,-0.158l0.035,-0.158l0.038,-0.157l0.039,-0.156l0.041,-0.155l0.043,-0.155l0.044,-0.154l0.047,-0.153l0.048,-0.152l0.051,-0.151l0.052,-0.151l0.054,-0.15l0.055,-0.149l0.058,-0.148l0.059,-0.147l0.061,-0.146l0.062,-0.146l0.064,-0.144l0.066,-0.144l0.068,-0.142l0.069,-0.142l0.071,-0.14l0.073,-0.14l0.074,-0.139l0.076,-0.137l0.078,-0.137l0.079,-0.136l0.081,-0.134l0.082,-0.134l0.084,-0.132l0.085,-0.132l0.087,-0.13l0.088,-0.129l0.09,-0.128l0.092,-0.127l0.093,-0.126l0.094,-0.124l0.096,-0.124l0.097,-0.122l0.099,-0.121l0.1,-0.12l0.102,-0.118l0.102,-0.118l0.105,-0.116l0.105,-0.115l0.107,-0.113l0.109,-0.113l0.109,-0.111l0.111,-0.109l0.113,-0.109l0.113,-0.107l0.115,-0.105l0.116,-0.105l0.118,-0.102l0.118,-0.102l0.12,-0.1l0.121,-0.099l0.122,-0.097l0.124,-0.096l0.124,-0.094l0.126,-0.093l0.127,-0.092l0.128,-0.09l0.129,-0.088l0.13,-0.087l0.132,-0.085l0.132,-0.084l0.134,-0.082l0.134,-0.081l0.136,-0.079l0.137,-0.078l0.137,-0.076l0.139,-0.074l0.14,-0.073l0.14,-0.071l0.142,-0.069l0.142,-0.068l0.144,-0.066l0.144,-0.064l0.146,-0.062l0.146,-0.061l0.147,-0.059l0.148,-0.058l0.149,-0.055l0.15,-0.054l0.151,-0.052l0.151,-0.051l0.152,-0.048l0.153,-0.047l0.154,-0.044l0.155,-0.043l0.155,-0.041l0.156,-0.039l0.157,-0.038l0.158,-0.035l0.158,-0.034l0.159,-0.031l0.16,-0.03l0.16,-0.027l0.161,-0.026l0.162,-0.024l0.162,-0.021l0.163,-0.02l0.164,-0.018l0.164,-0.015l0.164,-0.014l0.166,-0.012l0.166,-0.009l0.166,-0.007l0.167,-0.006l0.167,-0.003l0.168,-0.001l234.059,0l0.168,0.001Zm-234.209,5.499l-0.116,0.001l-0.098,0.002l-0.097,0.003l-0.097,0.004l-0.096,0.005l-0.096,0.007l-0.095,0.008l-0.095,0.009l-0.095,0.01l-0.094,0.012l-0.093,0.012l-0.093,0.014l-0.093,0.015l-0.092,0.015l-0.092,0.017l-0.091,0.019l-0.091,0.019l-0.091,0.02l-0.09,0.022l-0.089,0.022l-0.089,0.023l-0.088,0.025l-0.089,0.026l-0.088,0.027l-0.087,0.027l-0.087,0.029l-0.086,0.03l-0.086,0.031l-0.086,0.032l-0.085,0.033l-0.084,0.034l-0.084,0.035l-0.084,0.036l-0.083,0.037l-0.082,0.037l-0.082,0.039l-0.082,0.04l-0.081,0.041l-0.08,0.042l-0.08,0.043l-0.08,0.044l-0.078,0.044l-0.079,0.046l-0.077,0.047l-0.077,0.047l-0.077,0.048l-0.076,0.05l-0.075,0.05l-0.075,0.051l-0.074,0.052l-0.073,0.053l-0.073,0.054l-0.072,0.055l-0.072,0.055l-0.071,0.057l-0.07,0.057l-0.069,0.057l-0.069,0.059l-0.068,0.06l-0.068,0.061l-0.066,0.061l-0.066,0.062l-0.065,0.063l-0.065,0.064l-0.063,0.064l-0.063,0.065l-0.062,0.066l-0.061,0.066l-0.061,0.068l-0.06,0.068l-0.058,0.069l-0.059,0.069l-0.056,0.07l-0.057,0.071l-0.055,0.072l-0.055,0.072l-0.054,0.073l-0.053,0.073l-0.052,0.074l-0.051,0.075l-0.05,0.075l-0.05,0.076l-0.048,0.076l-0.047,0.078l-0.047,0.077l-0.046,0.079l-0.044,0.078l-0.044,0.08l-0.043,0.08l-0.042,0.08l-0.041,0.081l-0.04,0.082l-0.039,0.082l-0.038,0.082l-0.036,0.083l-0.036,0.084l-0.035,0.084l-0.034,0.084l-0.033,0.085l-0.032,0.086l-0.031,0.085l-0.03,0.087l-0.029,0.087l-0.027,0.087l-0.027,0.088l-0.026,0.088l-0.024,0.089l-0.024,0.089l-0.022,0.089l-0.022,0.09l-0.02,0.091l-0.019,0.091l-0.019,0.091l-0.017,0.092l-0.015,0.092l-0.015,0.093l-0.014,0.093l-0.012,0.093l-0.012,0.094l-0.01,0.095l-0.009,0.095l-0.008,0.095l-0.007,0.096l-0.005,0.096l-0.004,0.097l-0.003,0.097l-0.002,0.098l-0.001,0.116l0,328.458l0.001,0.116l0.002,0.098l0.003,0.097l0.004,0.097l0.005,0.096l0.007,0.096l0.008,0.095l0.009,0.095l0.01,0.095l0.012,0.094l0.012,0.093l0.014,0.093l0.015,0.093l0.015,0.092l0.018,0.092l0.018,0.091l0.019,0.091l0.02,0.091l0.022,0.089l0.022,0.09l0.024,0.089l0.024,0.089l0.026,0.088l0.027,0.088l0.027,0.087l0.029,0.087l0.03,0.086l0.031,0.087l0.032,0.085l0.033,0.085l0.034,0.084l0.035,0.085l0.036,0.083l0.036,0.083l0.038,0.082l0.039,0.082l0.04,0.082l0.041,0.081l0.042,0.08l0.043,0.08l0.043,0.079l0.045,0.079l0.046,0.079l0.047,0.078l0.047,0.077l0.048,0.076l0.05,0.076l0.05,0.075l0.051,0.074l0.052,0.075l0.053,0.074l0.054,0.072l0.055,0.073l0.055,0.071l0.056,0.07l0.058,0.071l0.058,0.07l0.058,0.068l0.06,0.068l0.061,0.067l0.061,0.067l0.062,0.066l0.063,0.065l0.064,0.065l0.064,0.063l0.065,0.063l0.066,0.062l0.067,0.061l0.067,0.061l0.068,0.059l0.068,0.059l0.07,0.058l0.071,0.058l0.07,0.056l0.072,0.055l0.072,0.055l0.073,0.054l0.074,0.053l0.073,0.052l0.074,0.051l0.076,0.05l0.076,0.049l0.076,0.049l0.078,0.048l0.078,0.046l0.077,0.046l0.08,0.044l0.079,0.044l0.079,0.043l0.081,0.042l0.081,0.041l0.082,0.04l0.082,0.039l0.082,0.037l0.083,0.038l0.084,0.036l0.083,0.034l0.085,0.034l0.086,0.034l0.085,0.031l0.085,0.031l0.087,0.03l0.087,0.029l0.087,0.027l0.088,0.027l0.088,0.026l0.089,0.025l0.09,0.023l0.089,0.023l0.089,0.021l0.09,0.02l0.092,0.019l0.092,0.019l0.091,0.017l0.092,0.015l0.093,0.015l0.093,0.014l0.093,0.012l0.094,0.012l0.094,0.01l0.096,0.009l0.095,0.008l0.097,0.007l0.096,0.005l0.095,0.004l0.098,0.003l0.098,0.002l0.115,0.001l234.025,0l0.115,-0.001l0.098,-0.002l0.098,-0.003l0.095,-0.004l0.097,-0.005l0.096,-0.007l0.096,-0.008l0.096,-0.009l0.093,-0.01l0.094,-0.012l0.093,-0.012l0.094,-0.014l0.093,-0.015l0.091,-0.015l0.092,-0.017l0.092,-0.019l0.092,-0.019l0.09,-0.02l0.089,-0.021l0.089,-0.023l0.09,-0.023l0.089,-0.025l0.088,-0.026l0.088,-0.027l0.087,-0.027l0.087,-0.029l0.087,-0.03l0.084,-0.031l0.086,-0.031l0.086,-0.034l0.085,-0.034l0.082,-0.034l0.084,-0.036l0.084,-0.038l0.082,-0.037l0.082,-0.039l0.081,-0.04l0.081,-0.041l0.081,-0.042l0.08,-0.043l0.079,-0.043l0.079,-0.045l0.078,-0.046l0.077,-0.046l0.078,-0.048l0.077,-0.049l0.075,-0.049l0.076,-0.05l0.075,-0.051l0.073,-0.052l0.074,-0.053l0.073,-0.054l0.072,-0.055l0.071,-0.055l0.071,-0.056l0.071,-0.058l0.069,-0.058l0.069,-0.059l0.067,-0.059l0.068,-0.061l0.067,-0.061l0.066,-0.062l0.065,-0.063l0.064,-0.063l0.064,-0.065l0.063,-0.065l0.061,-0.066l0.062,-0.067l0.061,-0.067l0.059,-0.068l0.059,-0.068l0.058,-0.07l0.057,-0.071l0.056,-0.07l0.056,-0.072l0.055,-0.072l0.053,-0.072l0.053,-0.074l0.053,-0.075l0.051,-0.074l0.05,-0.075l0.049,-0.076l0.049,-0.077l0.047,-0.076l0.047,-0.078l0.045,-0.079l0.045,-0.078l0.044,-0.08l0.043,-0.08l0.042,-0.08l0.04,-0.081l0.04,-0.082l0.039,-0.082l0.038,-0.082l0.037,-0.083l0.036,-0.083l0.035,-0.084l0.034,-0.085l0.033,-0.085l0.032,-0.085l0.031,-0.087l0.03,-0.086l0.028,-0.086l0.028,-0.088l0.027,-0.088l0.025,-0.088l0.025,-0.089l0.024,-0.089l0.022,-0.089l0.021,-0.09l0.021,-0.091l0.019,-0.091l0.018,-0.091l0.017,-0.092l0.016,-0.092l0.015,-0.093l0.013,-0.093l0.013,-0.093l0.011,-0.095l0.011,-0.094l0.009,-0.095l0.007,-0.095l0.007,-0.096l0.006,-0.096l0.004,-0.097l0.003,-0.097l0.002,-0.098l0.001,-0.116l0,-328.458l-0.001,-0.116l-0.002,-0.098l-0.003,-0.097l-0.004,-0.097l-0.006,-0.096l-0.007,-0.096l-0.007,-0.095l-0.009,-0.095l-0.011,-0.094l-0.011,-0.095l-0.013,-0.093l-0.013,-0.093l-0.015,-0.093l-0.016,-0.092l-0.017,-0.092l-0.018,-0.091l-0.019,-0.091l-0.021,-0.091l-0.021,-0.09l-0.022,-0.089l-0.024,-0.089l-0.025,-0.089l-0.025,-0.088l-0.027,-0.088l-0.028,-0.087l-0.028,-0.087l-0.03,-0.086l-0.031,-0.086l-0.032,-0.086l-0.033,-0.085l-0.034,-0.084l-0.035,-0.084l-0.036,-0.084l-0.037,-0.083l-0.038,-0.082l-0.039,-0.082l-0.04,-0.082l-0.04,-0.081l-0.042,-0.08l-0.043,-0.08l-0.044,-0.08l-0.045,-0.078l-0.045,-0.079l-0.047,-0.077l-0.047,-0.077l-0.049,-0.077l-0.049,-0.076l-0.05,-0.075l-0.052,-0.075l-0.052,-0.074l-0.052,-0.073l-0.054,-0.073l-0.055,-0.072l-0.056,-0.072l-0.056,-0.071l-0.057,-0.07l-0.058,-0.069l-0.059,-0.069l-0.059,-0.068l-0.061,-0.068l-0.061,-0.066l-0.062,-0.066l-0.063,-0.065l-0.064,-0.064l-0.064,-0.064l-0.066,-0.063l-0.065,-0.062l-0.067,-0.061l-0.067,-0.061l-0.068,-0.06l-0.069,-0.059l-0.07,-0.057l-0.07,-0.057l-0.07,-0.057l-0.072,-0.055l-0.072,-0.055l-0.073,-0.054l-0.073,-0.053l-0.075,-0.052l-0.074,-0.051l-0.076,-0.05l-0.076,-0.05l-0.076,-0.048l-0.077,-0.047l-0.078,-0.047l-0.078,-0.046l-0.079,-0.044l-0.079,-0.044l-0.08,-0.043l-0.08,-0.042l-0.081,-0.041l-0.082,-0.04l-0.082,-0.039l-0.082,-0.037l-0.083,-0.037l-0.084,-0.036l-0.084,-0.035l-0.084,-0.034l-0.086,-0.033l-0.085,-0.032l-0.086,-0.031l-0.086,-0.03l-0.087,-0.029l-0.087,-0.027l-0.088,-0.027l-0.089,-0.026l-0.088,-0.025l-0.089,-0.023l-0.09,-0.022l-0.09,-0.022l-0.09,-0.02l-0.091,-0.019l-0.092,-0.019l-0.092,-0.017l-0.092,-0.015l-0.092,-0.015l-0.093,-0.014l-0.094,-0.012l-0.094,-0.012l-0.094,-0.01l-0.096,-0.009l-0.095,-0.008l-0.095,-0.007l-0.096,-0.005l-0.098,-0.004l-0.097,-0.003l-0.097,-0.002l-0.116,-0.001l-234.024,0Z" style="fill:#413d37;"/><g transform="matrix(0.988616,0,0,0.988616,94.2636,-451.939)"><text x="-72.258px" y="532.318px" style="font-family:'Roboto-Medium', 'Roboto';font-weight:500;font-size:72px;fill:#413d37;">SPEED</text><text x="-55.946px" y="604.318px" style="font-family:'Roboto-Medium', 'Roboto';font-weight:500;font-size:72px;fill:#413d37;">LIMI<tspan x="85.664px " y="604.318px ">T</tspan></text></g></g></svg>