<?xml version="1.0" encoding="UTF-8" standalone="no"?><!DOCTYPE svg PUBLIC "-//W3C//DTD SVG 1.1//EN" "http://www.w3.org/Graphics/SVG/1.1/DTD/svg11.dtd"><svg width="100%" height="100%" viewBox="0 0 146 355" version="1.1" xmlns="http://www.w3.org/2000/svg" xmlns:xlink="http://www.w3.org/1999/xlink" xml:space="preserve" style="fill-rule:evenodd;clip-rule:evenodd;stroke-linejoin:round;stroke-miterlimit:1.41421;"><rect id="Artboard3" x="0" y="0" width="145.323" height="354.5" style="fill:none;"/><clipPath id="_clip1"><rect id="Artboard31" x="0" y="0" width="145.323" height="354.5"/></clipPath><g clip-path="url(#_clip1)"><path d="M144.789,8.392c0,-4.632 -3.76,-8.392 -8.391,-8.392l-128.006,0c-4.632,0 -8.392,3.76 -8.392,8.392l0,337.716c0,4.632 3.76,8.392 8.392,8.392l128.006,0c4.631,0 8.391,-3.76 8.391,-8.392l0,-337.716Z" style="fill:#413d37;"/><circle cx="72.395" cy="65.02" r="36.5" style="fill:#ff6c64;"/><path d="M72.63,28.52l0.236,0.003l0.235,0.003l0.235,0.006l0.235,0.006l0.234,0.008l0.233,0.01l0.234,0.011l0.233,0.013l0.232,0.014l0.232,0.015l0.232,0.017l0.232,0.019l0.231,0.019l0.23,0.022l0.23,0.022l0.23,0.024l0.229,0.026l0.229,0.027l0.229,0.028l0.228,0.03l0.227,0.031l0.227,0.033l0.227,0.034l0.226,0.035l0.226,0.037l0.225,0.038l0.225,0.039l0.225,0.041l0.223,0.042l0.224,0.044l0.223,0.045l0.222,0.046l0.222,0.048l0.222,0.049l0.22,0.05l0.221,0.052l0.22,0.053l0.219,0.054l0.219,0.056l0.218,0.057l0.218,0.058l0.217,0.059l0.217,0.061l0.216,0.063l0.216,0.063l0.215,0.065l0.215,0.066l0.214,0.067l0.213,0.069l0.213,0.07l0.212,0.071l0.212,0.072l0.211,0.074l0.21,0.075l0.21,0.076l0.209,0.077l0.209,0.079l0.208,0.08l0.208,0.081l0.207,0.083l0.206,0.083l0.205,0.085l0.205,0.086l0.205,0.087l0.203,0.089l0.203,0.089l0.203,0.091l0.202,0.092l0.201,0.093l0.2,0.095l0.2,0.095l0.199,0.097l0.199,0.098l0.197,0.099l0.197,0.1l0.197,0.102l0.195,0.102l0.195,0.104l0.195,0.105l0.193,0.106l0.193,0.107l0.192,0.108l0.192,0.109l0.19,0.111l0.19,0.112l0.19,0.112l0.188,0.114l0.188,0.115l0.187,0.116l0.186,0.117l0.186,0.118l0.185,0.12l0.184,0.12l0.183,0.121l0.182,0.123l0.182,0.123l0.181,0.125l0.18,0.126l0.179,0.127l0.179,0.127l0.177,0.129l0.177,0.13l0.176,0.131l0.176,0.132l0.174,0.133l0.174,0.134l0.173,0.135l0.171,0.136l0.172,0.137l0.17,0.138l0.169,0.139l0.169,0.14l0.168,0.141l0.167,0.142l0.166,0.143l0.165,0.144l0.164,0.145l0.163,0.146l0.163,0.146l0.162,0.148l0.16,0.149l0.16,0.15l0.159,0.15l0.158,0.152l0.157,0.153l0.157,0.153l0.155,0.154l0.154,0.156l0.154,0.156l0.152,0.157l0.152,0.158l0.151,0.159l0.149,0.16l0.149,0.161l0.148,0.161l0.147,0.163l0.146,0.163l0.144,0.164l0.144,0.166l0.143,0.166l0.142,0.167l0.141,0.167l0.14,0.169l0.139,0.169l0.138,0.171l0.137,0.171l0.136,0.172l0.135,0.173l0.134,0.173l0.133,0.175l0.132,0.175l0.131,0.176l0.13,0.177l0.129,0.178l0.128,0.178l0.127,0.179l0.125,0.181l0.125,0.18l0.123,0.182l0.123,0.183l0.121,0.183l0.121,0.184l0.119,0.185l0.118,0.185l0.117,0.186l0.116,0.187l0.115,0.188l0.114,0.189l0.113,0.189l0.111,0.19l0.111,0.191l0.109,0.191l0.108,0.192l0.108,0.193l0.106,0.194l0.104,0.194l0.104,0.195l0.103,0.196l0.101,0.196l0.1,0.197l0.099,0.198l0.098,0.198l0.097,0.199l0.096,0.2l0.094,0.201l0.093,0.201l0.092,0.201l0.091,0.203l0.09,0.203l0.088,0.204l0.087,0.204l0.086,0.205l0.085,0.206l0.084,0.206l0.082,0.207l0.081,0.207l0.08,0.208l0.079,0.209l0.077,0.209l0.076,0.21l0.075,0.211l0.074,0.211l0.072,0.211l0.072,0.213l0.07,0.212l0.068,0.214l0.067,0.214l0.067,0.214l0.064,0.215l0.064,0.216l0.062,0.216l0.061,0.217l0.059,0.217l0.059,0.218l0.057,0.218l0.055,0.219l0.055,0.22l0.053,0.219l0.051,0.221l0.051,0.221l0.049,0.221l0.047,0.222l0.046,0.223l0.045,0.222l0.044,0.224l0.042,0.224l0.041,0.224l0.04,0.225l0.038,0.225l0.036,0.226l0.036,0.226l0.034,0.227l0.032,0.227l0.031,0.228l0.03,0.228l0.028,0.228l0.027,0.229l0.026,0.229l0.024,0.23l0.023,0.23l0.021,0.231l0.02,0.231l0.018,0.231l0.017,0.232l0.015,0.232l0.015,0.233l0.012,0.233l0.011,0.233l0.01,0.234l0.008,0.234l0.007,0.234l0.005,0.235l0.004,0.235l0.002,0.236l0.001,0.236l-0.001,0.236l-0.002,0.235l-0.004,0.235l-0.005,0.235l-0.007,0.235l-0.008,0.234l-0.01,0.233l-0.011,0.234l-0.012,0.233l-0.015,0.232l-0.015,0.233l-0.017,0.231l-0.018,0.232l-0.02,0.231l-0.021,0.23l-0.023,0.23l-0.024,0.23l-0.026,0.229l-0.027,0.229l-0.028,0.229l-0.03,0.228l-0.031,0.227l-0.032,0.227l-0.034,0.227l-0.036,0.226l-0.036,0.226l-0.038,0.225l-0.04,0.225l-0.041,0.225l-0.042,0.224l-0.044,0.223l-0.045,0.223l-0.046,0.222l-0.047,0.222l-0.049,0.222l-0.051,0.221l-0.051,0.22l-0.053,0.22l-0.055,0.219l-0.055,0.219l-0.057,0.218l-0.059,0.218l-0.059,0.218l-0.061,0.216l-0.062,0.216l-0.064,0.216l-0.064,0.215l-0.067,0.215l-0.067,0.214l-0.068,0.213l-0.07,0.213l-0.072,0.212l-0.072,0.212l-0.074,0.211l-0.075,0.21l-0.076,0.21l-0.077,0.21l-0.079,0.208l-0.08,0.208l-0.081,0.208l-0.082,0.207l-0.084,0.206l-0.085,0.205l-0.086,0.205l-0.087,0.205l-0.088,0.204l-0.09,0.203l-0.091,0.202l-0.092,0.202l-0.093,0.201l-0.094,0.2l-0.096,0.2l-0.097,0.199l-0.098,0.199l-0.099,0.197l-0.1,0.197l-0.101,0.197l-0.103,0.196l-0.104,0.194l-0.104,0.195l-0.106,0.193l-0.108,0.193l-0.108,0.192l-0.109,0.192l-0.111,0.191l-0.111,0.19l-0.113,0.189l-0.114,0.188l-0.115,0.188l-0.116,0.187l-0.117,0.186l-0.118,0.186l-0.119,0.185l-0.121,0.184l-0.121,0.183l-0.123,0.182l-0.123,0.182l-0.125,0.181l-0.125,0.18l-0.127,0.179l-0.128,0.179l-0.129,0.177l-0.13,0.177l-0.131,0.176l-0.132,0.176l-0.133,0.174l-0.134,0.174l-0.135,0.173l-0.136,0.172l-0.137,0.171l-0.138,0.17l-0.139,0.169l-0.14,0.169l-0.141,0.168l-0.142,0.167l-0.143,0.166l-0.144,0.165l-0.144,0.164l-0.146,0.164l-0.147,0.162l-0.148,0.162l-0.149,0.161l-0.149,0.159l-0.151,0.159l-0.152,0.158l-0.152,0.157l-0.154,0.157l-0.154,0.155l-0.155,0.154l-0.157,0.154l-0.157,0.152l-0.158,0.152l-0.159,0.151l-0.16,0.149l-0.16,0.149l-0.162,0.148l-0.163,0.147l-0.163,0.146l-0.164,0.145l-0.165,0.144l-0.166,0.143l-0.167,0.141l-0.168,0.141l-0.169,0.141l-0.169,0.139l-0.17,0.138l-0.172,0.137l-0.171,0.136l-0.173,0.135l-0.174,0.134l-0.174,0.133l-0.176,0.131l-0.176,0.131l-0.177,0.13l-0.177,0.129l-0.179,0.128l-0.179,0.127l-0.18,0.125l-0.181,0.125l-0.182,0.124l-0.182,0.122l-0.183,0.121l-0.184,0.121l-0.185,0.119l-0.186,0.118l-0.186,0.117l-0.187,0.116l-0.188,0.115l-0.188,0.114l-0.19,0.113l-0.19,0.111l-0.19,0.111l-0.192,0.109l-0.192,0.109l-0.193,0.107l-0.193,0.106l-0.195,0.104l-0.195,0.104l-0.195,0.103l-0.197,0.101l-0.197,0.1l-0.197,0.099l-0.199,0.098l-0.199,0.097l-0.2,0.096l-0.2,0.094l-0.201,0.093l-0.202,0.092l-0.203,0.091l-0.203,0.09l-0.203,0.088l-0.205,0.087l-0.205,0.086l-0.205,0.085l-0.206,0.084l-0.207,0.082l-0.208,0.081l-0.208,0.08l-0.209,0.079l-0.209,0.077l-0.21,0.077l-0.21,0.074l-0.211,0.074l-0.212,0.073l-0.212,0.071l-0.213,0.07l-0.213,0.068l-0.214,0.068l-0.215,0.066l-0.215,0.064l-0.216,0.064l-0.216,0.062l-0.217,0.061l-0.217,0.06l-0.218,0.058l-0.218,0.057l-0.219,0.055l-0.219,0.055l-0.22,0.053l-0.221,0.051l-0.22,0.051l-0.222,0.049l-0.222,0.047l-0.222,0.047l-0.223,0.045l-0.224,0.043l-0.223,0.042l-0.225,0.041l-0.225,0.04l-0.225,0.038l-0.226,0.036l-0.226,0.036l-0.227,0.034l-0.227,0.032l-0.227,0.031l-0.228,0.03l-0.229,0.029l-0.229,0.026l-0.229,0.026l-0.23,0.024l-0.23,0.023l-0.23,0.021l-0.231,0.02l-0.232,0.018l-0.232,0.017l-0.232,0.016l-0.232,0.014l-0.233,0.012l-0.234,0.011l-0.233,0.01l-0.234,0.008l-0.235,0.007l-0.235,0.005l-0.235,0.004l-0.236,0.002l-0.235,0.001l-0.236,-0.001l-0.236,-0.002l-0.235,-0.004l-0.235,-0.005l-0.234,-0.007l-0.234,-0.008l-0.234,-0.01l-0.233,-0.011l-0.233,-0.012l-0.233,-0.014l-0.232,-0.016l-0.232,-0.017l-0.231,-0.018l-0.231,-0.02l-0.231,-0.021l-0.23,-0.023l-0.23,-0.024l-0.229,-0.026l-0.229,-0.026l-0.228,-0.029l-0.228,-0.03l-0.228,-0.031l-0.227,-0.032l-0.227,-0.034l-0.226,-0.036l-0.226,-0.036l-0.225,-0.038l-0.225,-0.04l-0.224,-0.041l-0.224,-0.042l-0.224,-0.043l-0.223,-0.045l-0.222,-0.047l-0.222,-0.047l-0.221,-0.049l-0.221,-0.051l-0.221,-0.051l-0.22,-0.053l-0.219,-0.055l-0.219,-0.055l-0.218,-0.057l-0.218,-0.058l-0.217,-0.06l-0.217,-0.061l-0.216,-0.062l-0.216,-0.064l-0.215,-0.064l-0.214,-0.066l-0.214,-0.068l-0.214,-0.068l-0.213,-0.07l-0.212,-0.071l-0.211,-0.073l-0.212,-0.074l-0.21,-0.074l-0.21,-0.077l-0.209,-0.077l-0.209,-0.079l-0.208,-0.08l-0.207,-0.081l-0.207,-0.082l-0.207,-0.084l-0.205,-0.085l-0.205,-0.086l-0.205,-0.087l-0.203,-0.088l-0.203,-0.09l-0.203,-0.091l-0.201,-0.092l-0.202,-0.093l-0.2,-0.094l-0.2,-0.096l-0.199,-0.097l-0.198,-0.098l-0.198,-0.099l-0.197,-0.1l-0.197,-0.101l-0.195,-0.103l-0.195,-0.104l-0.194,-0.104l-0.194,-0.106l-0.193,-0.107l-0.192,-0.109l-0.192,-0.109l-0.19,-0.111l-0.19,-0.111l-0.189,-0.113l-0.189,-0.114l-0.188,-0.115l-0.187,-0.116l-0.186,-0.117l-0.186,-0.118l-0.184,-0.119l-0.184,-0.121l-0.184,-0.121l-0.182,-0.122l-0.182,-0.124l-0.181,-0.125l-0.18,-0.125l-0.179,-0.127l-0.178,-0.128l-0.178,-0.129l-0.177,-0.13l-0.176,-0.131l-0.175,-0.131l-0.175,-0.133l-0.174,-0.134l-0.172,-0.135l-0.172,-0.136l-0.171,-0.137l-0.171,-0.138l-0.169,-0.139l-0.169,-0.141l-0.168,-0.141l-0.166,-0.141l-0.166,-0.143l-0.166,-0.144l-0.164,-0.145l-0.163,-0.146l-0.163,-0.147l-0.161,-0.148l-0.161,-0.149l-0.16,-0.149l-0.159,-0.151l-0.158,-0.152l-0.157,-0.152l-0.156,-0.154l-0.156,-0.154l-0.154,-0.155l-0.154,-0.157l-0.152,-0.157l-0.152,-0.158l-0.15,-0.159l-0.15,-0.159l-0.149,-0.161l-0.148,-0.162l-0.146,-0.162l-0.146,-0.164l-0.145,-0.164l-0.144,-0.165l-0.143,-0.166l-0.142,-0.167l-0.141,-0.168l-0.14,-0.169l-0.139,-0.169l-0.138,-0.17l-0.137,-0.171l-0.136,-0.172l-0.135,-0.173l-0.134,-0.174l-0.133,-0.174l-0.132,-0.176l-0.131,-0.176l-0.13,-0.177l-0.129,-0.177l-0.128,-0.179l-0.126,-0.179l-0.126,-0.18l-0.125,-0.181l-0.123,-0.182l-0.123,-0.182l-0.121,-0.183l-0.121,-0.184l-0.119,-0.185l-0.118,-0.186l-0.117,-0.186l-0.116,-0.187l-0.115,-0.188l-0.114,-0.188l-0.113,-0.189l-0.111,-0.19l-0.111,-0.191l-0.109,-0.192l-0.108,-0.192l-0.107,-0.193l-0.106,-0.193l-0.105,-0.195l-0.104,-0.194l-0.102,-0.196l-0.102,-0.197l-0.1,-0.197l-0.099,-0.197l-0.098,-0.199l-0.097,-0.199l-0.095,-0.2l-0.095,-0.2l-0.093,-0.201l-0.092,-0.202l-0.091,-0.202l-0.089,-0.203l-0.089,-0.204l-0.087,-0.205l-0.086,-0.205l-0.085,-0.205l-0.084,-0.206l-0.082,-0.207l-0.081,-0.208l-0.08,-0.208l-0.079,-0.208l-0.077,-0.21l-0.076,-0.21l-0.075,-0.21l-0.074,-0.211l-0.072,-0.212l-0.071,-0.212l-0.07,-0.213l-0.069,-0.213l-0.067,-0.214l-0.066,-0.215l-0.065,-0.215l-0.064,-0.216l-0.062,-0.216l-0.061,-0.216l-0.059,-0.218l-0.058,-0.218l-0.057,-0.218l-0.056,-0.219l-0.054,-0.219l-0.053,-0.22l-0.052,-0.22l-0.05,-0.221l-0.049,-0.222l-0.048,-0.222l-0.046,-0.222l-0.045,-0.223l-0.044,-0.223l-0.042,-0.224l-0.041,-0.225l-0.039,-0.225l-0.038,-0.225l-0.037,-0.226l-0.036,-0.226l-0.033,-0.227l-0.033,-0.227l-0.031,-0.227l-0.03,-0.228l-0.028,-0.229l-0.027,-0.229l-0.026,-0.229l-0.024,-0.23l-0.022,-0.23l-0.022,-0.23l-0.02,-0.231l-0.018,-0.232l-0.017,-0.231l-0.015,-0.233l-0.014,-0.232l-0.013,-0.233l-0.011,-0.234l-0.01,-0.233l-0.008,-0.234l-0.006,-0.235l-0.006,-0.235l-0.003,-0.235l-0.003,-0.235l0,-0.236l0,-0.236l0.003,-0.236l0.003,-0.235l0.006,-0.235l0.006,-0.234l0.008,-0.234l0.01,-0.234l0.011,-0.233l0.013,-0.233l0.014,-0.233l0.015,-0.232l0.017,-0.232l0.018,-0.231l0.02,-0.231l0.022,-0.231l0.022,-0.23l0.024,-0.23l0.026,-0.229l0.027,-0.229l0.028,-0.228l0.03,-0.228l0.031,-0.228l0.033,-0.227l0.033,-0.227l0.036,-0.226l0.037,-0.226l0.038,-0.225l0.039,-0.225l0.041,-0.224l0.042,-0.224l0.044,-0.224l0.045,-0.222l0.046,-0.223l0.048,-0.222l0.049,-0.221l0.05,-0.221l0.052,-0.221l0.053,-0.219l0.054,-0.22l0.056,-0.219l0.057,-0.218l0.058,-0.218l0.059,-0.217l0.061,-0.217l0.062,-0.216l0.064,-0.216l0.065,-0.215l0.066,-0.214l0.067,-0.214l0.069,-0.214l0.07,-0.212l0.071,-0.213l0.072,-0.211l0.074,-0.211l0.075,-0.211l0.076,-0.21l0.077,-0.209l0.079,-0.209l0.08,-0.208l0.081,-0.207l0.082,-0.207l0.084,-0.206l0.085,-0.206l0.086,-0.205l0.087,-0.204l0.089,-0.204l0.089,-0.203l0.091,-0.203l0.092,-0.201l0.093,-0.201l0.095,-0.201l0.095,-0.2l0.097,-0.199l0.098,-0.198l0.099,-0.198l0.1,-0.197l0.102,-0.196l0.102,-0.196l0.104,-0.195l0.105,-0.194l0.106,-0.194l0.107,-0.193l0.108,-0.192l0.109,-0.191l0.111,-0.191l0.111,-0.19l0.113,-0.189l0.114,-0.189l0.115,-0.188l0.116,-0.187l0.117,-0.186l0.118,-0.185l0.119,-0.185l0.121,-0.184l0.121,-0.183l0.123,-0.183l0.123,-0.182l0.125,-0.18l0.126,-0.181l0.126,-0.179l0.128,-0.178l0.129,-0.178l0.13,-0.177l0.131,-0.176l0.132,-0.175l0.133,-0.175l0.134,-0.173l0.135,-0.173l0.136,-0.172l0.137,-0.171l0.138,-0.171l0.139,-0.169l0.14,-0.169l0.141,-0.167l0.142,-0.167l0.143,-0.166l0.144,-0.166l0.145,-0.164l0.146,-0.163l0.146,-0.163l0.148,-0.161l0.149,-0.161l0.15,-0.16l0.15,-0.159l0.152,-0.158l0.152,-0.157l0.154,-0.156l0.154,-0.156l0.156,-0.154l0.156,-0.153l0.157,-0.153l0.158,-0.152l0.159,-0.15l0.16,-0.15l0.161,-0.149l0.161,-0.148l0.163,-0.146l0.163,-0.146l0.164,-0.145l0.166,-0.144l0.166,-0.143l0.166,-0.142l0.168,-0.141l0.169,-0.14l0.169,-0.139l0.171,-0.138l0.171,-0.137l0.172,-0.136l0.172,-0.135l0.174,-0.134l0.175,-0.133l0.175,-0.132l0.176,-0.131l0.177,-0.13l0.178,-0.129l0.178,-0.127l0.179,-0.127l0.18,-0.126l0.181,-0.125l0.182,-0.123l0.182,-0.123l0.184,-0.121l0.184,-0.12l0.184,-0.12l0.186,-0.118l0.186,-0.117l0.187,-0.116l0.188,-0.115l0.189,-0.114l0.189,-0.112l0.19,-0.112l0.19,-0.111l0.192,-0.109l0.192,-0.108l0.193,-0.107l0.194,-0.106l0.194,-0.105l0.195,-0.104l0.195,-0.102l0.197,-0.102l0.197,-0.1l0.198,-0.099l0.198,-0.098l0.199,-0.097l0.2,-0.095l0.2,-0.095l0.202,-0.093l0.201,-0.092l0.203,-0.091l0.203,-0.089l0.203,-0.089l0.205,-0.087l0.205,-0.086l0.205,-0.085l0.207,-0.083l0.207,-0.083l0.207,-0.081l0.208,-0.08l0.209,-0.079l0.209,-0.077l0.21,-0.076l0.21,-0.075l0.212,-0.074l0.211,-0.072l0.212,-0.071l0.213,-0.07l0.214,-0.069l0.214,-0.067l0.214,-0.066l0.215,-0.065l0.216,-0.063l0.216,-0.063l0.217,-0.061l0.217,-0.059l0.218,-0.058l0.218,-0.057l0.219,-0.056l0.219,-0.054l0.22,-0.053l0.221,-0.052l0.221,-0.05l0.221,-0.049l0.222,-0.048l0.222,-0.046l0.223,-0.045l0.224,-0.044l0.224,-0.042l0.224,-0.041l0.225,-0.039l0.225,-0.038l0.226,-0.037l0.226,-0.035l0.227,-0.034l0.227,-0.033l0.228,-0.031l0.228,-0.03l0.228,-0.028l0.229,-0.027l0.229,-0.026l0.23,-0.024l0.23,-0.022l0.231,-0.022l0.231,-0.019l0.231,-0.019l0.232,-0.017l0.232,-0.015l0.233,-0.014l0.233,-0.013l0.233,-0.011l0.234,-0.01l0.234,-0.008l0.234,-0.006l0.235,-0.006l0.235,-0.003l0.236,-0.003l0.236,0l0.235,0Zm-0.436,5.5l-0.201,0.002l-0.2,0.003l-0.2,0.005l-0.2,0.006l-0.199,0.007l-0.199,0.008l-0.199,0.009l-0.198,0.011l-0.198,0.012l-0.197,0.013l-0.197,0.014l-0.197,0.016l-0.196,0.017l-0.196,0.018l-0.196,0.019l-0.195,0.021l-0.195,0.021l-0.194,0.023l-0.194,0.024l-0.194,0.025l-0.193,0.027l-0.193,0.028l-0.192,0.028l-0.192,0.03l-0.192,0.032l-0.191,0.032l-0.191,0.033l-0.19,0.035l-0.19,0.036l-0.19,0.037l-0.189,0.038l-0.188,0.039l-0.189,0.041l-0.188,0.041l-0.186,0.043l-0.188,0.044l-0.187,0.045l-0.186,0.046l-0.185,0.047l-0.186,0.048l-0.184,0.05l-0.184,0.05l-0.184,0.052l-0.184,0.053l-0.182,0.053l-0.183,0.055l-0.182,0.056l-0.181,0.057l-0.181,0.058l-0.18,0.06l-0.181,0.06l-0.179,0.062l-0.179,0.062l-0.178,0.064l-0.178,0.064l-0.178,0.066l-0.177,0.067l-0.176,0.067l-0.177,0.069l-0.175,0.07l-0.175,0.071l-0.175,0.072l-0.173,0.073l-0.174,0.074l-0.173,0.075l-0.171,0.076l-0.173,0.077l-0.171,0.078l-0.17,0.079l-0.171,0.08l-0.169,0.082l-0.169,0.082l-0.169,0.083l-0.167,0.084l-0.167,0.085l-0.167,0.086l-0.167,0.087l-0.165,0.088l-0.165,0.089l-0.164,0.09l-0.164,0.091l-0.164,0.092l-0.162,0.093l-0.162,0.094l-0.161,0.094l-0.161,0.096l-0.16,0.097l-0.159,0.097l-0.159,0.099l-0.159,0.1l-0.157,0.1l-0.157,0.101l-0.156,0.102l-0.156,0.103l-0.156,0.105l-0.154,0.105l-0.153,0.105l-0.154,0.108l-0.152,0.107l-0.151,0.109l-0.152,0.11l-0.15,0.11l-0.149,0.111l-0.15,0.112l-0.148,0.113l-0.147,0.114l-0.147,0.115l-0.147,0.116l-0.145,0.116l-0.145,0.117l-0.144,0.118l-0.144,0.12l-0.142,0.12l-0.142,0.12l-0.141,0.122l-0.141,0.122l-0.139,0.124l-0.139,0.124l-0.139,0.125l-0.137,0.125l-0.136,0.126l-0.137,0.128l-0.135,0.128l-0.134,0.129l-0.134,0.13l-0.132,0.13l-0.133,0.131l-0.131,0.133l-0.13,0.132l-0.13,0.134l-0.129,0.135l-0.128,0.135l-0.127,0.135l-0.127,0.137l-0.126,0.138l-0.125,0.138l-0.124,0.139l-0.123,0.14l-0.122,0.14l-0.122,0.141l-0.12,0.142l-0.121,0.143l-0.119,0.143l-0.118,0.144l-0.117,0.145l-0.116,0.145l-0.116,0.147l-0.115,0.147l-0.114,0.147l-0.113,0.148l-0.112,0.15l-0.111,0.149l-0.111,0.15l-0.109,0.152l-0.109,0.151l-0.107,0.153l-0.107,0.153l-0.106,0.153l-0.105,0.155l-0.104,0.155l-0.104,0.156l-0.102,0.156l-0.101,0.157l-0.1,0.157l-0.1,0.158l-0.099,0.16l-0.097,0.159l-0.097,0.16l-0.096,0.161l-0.094,0.161l-0.094,0.162l-0.093,0.163l-0.092,0.163l-0.091,0.164l-0.09,0.164l-0.089,0.165l-0.088,0.166l-0.087,0.166l-0.086,0.166l-0.085,0.168l-0.084,0.167l-0.083,0.169l-0.083,0.169l-0.081,0.169l-0.08,0.171l-0.079,0.17l-0.078,0.172l-0.077,0.172l-0.076,0.171l-0.075,0.174l-0.074,0.173l-0.073,0.173l-0.072,0.175l-0.071,0.175l-0.07,0.175l-0.069,0.177l-0.067,0.176l-0.067,0.177l-0.066,0.178l-0.064,0.178l-0.064,0.178l-0.063,0.179l-0.061,0.18l-0.06,0.18l-0.06,0.18l-0.058,0.181l-0.057,0.181l-0.056,0.182l-0.055,0.183l-0.054,0.183l-0.052,0.183l-0.052,0.184l-0.05,0.184l-0.05,0.185l-0.048,0.185l-0.047,0.186l-0.046,0.186l-0.045,0.186l-0.044,0.187l-0.043,0.187l-0.041,0.188l-0.041,0.189l-0.039,0.188l-0.038,0.19l-0.037,0.189l-0.036,0.19l-0.035,0.19l-0.033,0.191l-0.033,0.191l-0.031,0.192l-0.03,0.192l-0.029,0.192l-0.027,0.193l-0.027,0.193l-0.025,0.194l-0.024,0.194l-0.023,0.194l-0.022,0.195l-0.02,0.195l-0.019,0.196l-0.018,0.196l-0.017,0.196l-0.016,0.197l-0.014,0.197l-0.013,0.197l-0.012,0.198l-0.011,0.198l-0.009,0.199l-0.009,0.199l-0.007,0.199l-0.005,0.2l-0.005,0.2l-0.003,0.2l-0.002,0.201l0,0.201l0,0.201l0.002,0.2l0.003,0.201l0.005,0.2l0.005,0.199l0.007,0.199l0.009,0.2l0.009,0.198l0.011,0.198l0.012,0.198l0.013,0.197l0.014,0.197l0.016,0.197l0.017,0.197l0.018,0.195l0.019,0.196l0.02,0.195l0.022,0.195l0.023,0.194l0.024,0.195l0.025,0.193l0.027,0.193l0.027,0.193l0.029,0.192l0.03,0.193l0.031,0.191l0.033,0.191l0.033,0.191l0.035,0.19l0.036,0.19l0.037,0.19l0.038,0.189l0.039,0.189l0.041,0.188l0.041,0.188l0.043,0.187l0.044,0.187l0.045,0.187l0.046,0.186l0.047,0.185l0.048,0.186l0.05,0.184l0.05,0.185l0.052,0.183l0.052,0.183l0.054,0.183l0.055,0.183l0.056,0.182l0.057,0.181l0.058,0.181l0.06,0.18l0.06,0.181l0.062,0.179l0.062,0.179l0.064,0.179l0.064,0.178l0.066,0.177l0.067,0.177l0.067,0.177l0.069,0.176l0.07,0.175l0.071,0.175l0.072,0.175l0.073,0.173l0.074,0.174l0.075,0.173l0.076,0.172l0.077,0.172l0.078,0.171l0.079,0.171l0.08,0.17l0.081,0.169l0.083,0.169l0.083,0.169l0.084,0.168l0.085,0.167l0.086,0.167l0.087,0.166l0.088,0.165l0.089,0.165l0.09,0.165l0.091,0.163l0.092,0.164l0.093,0.162l0.094,0.162l0.094,0.161l0.096,0.161l0.097,0.161l0.097,0.159l0.099,0.159l0.1,0.158l0.1,0.158l0.101,0.157l0.102,0.155l0.103,0.156l0.105,0.156l0.105,0.154l0.105,0.153l0.107,0.154l0.108,0.152l0.109,0.152l0.109,0.151l0.111,0.15l0.111,0.15l0.112,0.149l0.113,0.148l0.114,0.148l0.115,0.147l0.115,0.146l0.117,0.146l0.117,0.144l0.119,0.144l0.118,0.143l0.12,0.143l0.121,0.142l0.122,0.141l0.122,0.141l0.123,0.14l0.124,0.138l0.125,0.139l0.126,0.137l0.127,0.137l0.127,0.136l0.128,0.135l0.129,0.134l0.13,0.134l0.13,0.133l0.131,0.132l0.133,0.131l0.132,0.131l0.134,0.129l0.135,0.13l0.135,0.128l0.135,0.127l0.137,0.126l0.138,0.126l0.138,0.125l0.139,0.124l0.139,0.123l0.141,0.123l0.141,0.121l0.142,0.121l0.142,0.12l0.144,0.119l0.144,0.118l0.145,0.117l0.145,0.117l0.147,0.115l0.147,0.115l0.147,0.114l0.148,0.113l0.15,0.112l0.149,0.112l0.15,0.11l0.152,0.11l0.151,0.108l0.152,0.108l0.154,0.107l0.153,0.106l0.155,0.105l0.155,0.104l0.156,0.103l0.156,0.102l0.157,0.101l0.158,0.101l0.157,0.099l0.159,0.099l0.16,0.098l0.16,0.096l0.161,0.096l0.161,0.095l0.162,0.094l0.163,0.093l0.163,0.091l0.164,0.091l0.164,0.09l0.165,0.089l0.166,0.088l0.166,0.087l0.166,0.086l0.168,0.086l0.168,0.084l0.168,0.083l0.169,0.082l0.169,0.081l0.17,0.08l0.171,0.079l0.172,0.078l0.171,0.077l0.172,0.076l0.174,0.076l0.173,0.074l0.173,0.072l0.175,0.072l0.175,0.071l0.175,0.07l0.177,0.069l0.176,0.068l0.177,0.066l0.178,0.066l0.177,0.065l0.179,0.063l0.179,0.063l0.18,0.061l0.18,0.061l0.18,0.059l0.181,0.058l0.182,0.057l0.181,0.056l0.183,0.055l0.182,0.054l0.184,0.053l0.184,0.051l0.184,0.051l0.185,0.049l0.185,0.048l0.185,0.048l0.187,0.046l0.186,0.045l0.187,0.044l0.187,0.042l0.188,0.042l0.189,0.04l0.188,0.039l0.189,0.039l0.19,0.037l0.19,0.035l0.191,0.035l0.19,0.034l0.191,0.032l0.192,0.031l0.192,0.03l0.192,0.029l0.193,0.027l0.193,0.027l0.193,0.025l0.195,0.024l0.195,0.023l0.194,0.022l0.195,0.02l0.195,0.02l0.197,0.018l0.197,0.016l0.195,0.016l0.198,0.014l0.198,0.014l0.197,0.012l0.198,0.01l0.199,0.01l0.199,0.008l0.199,0.007l0.2,0.006l0.2,0.004l0.199,0.003l0.201,0.002l0.202,0.001l0.201,-0.001l0.201,-0.002l0.199,-0.003l0.2,-0.004l0.201,-0.006l0.199,-0.007l0.198,-0.008l0.199,-0.01l0.198,-0.01l0.197,-0.012l0.198,-0.014l0.198,-0.014l0.196,-0.016l0.196,-0.016l0.197,-0.019l0.195,-0.019l0.195,-0.02l0.195,-0.022l0.194,-0.023l0.195,-0.024l0.193,-0.025l0.193,-0.027l0.193,-0.027l0.192,-0.029l0.193,-0.03l0.191,-0.031l0.191,-0.032l0.191,-0.034l0.19,-0.035l0.191,-0.036l0.189,-0.036l0.189,-0.038l0.189,-0.04l0.188,-0.04l0.188,-0.042l0.187,-0.042l0.187,-0.044l0.186,-0.045l0.187,-0.046l0.185,-0.048l0.185,-0.048l0.185,-0.049l0.184,-0.051l0.184,-0.051l0.184,-0.053l0.182,-0.054l0.183,-0.055l0.182,-0.056l0.181,-0.057l0.182,-0.058l0.18,-0.059l0.179,-0.061l0.18,-0.061l0.18,-0.063l0.178,-0.063l0.177,-0.065l0.178,-0.066l0.178,-0.066l0.176,-0.068l0.176,-0.069l0.175,-0.07l0.175,-0.071l0.175,-0.072l0.173,-0.072l0.173,-0.074l0.174,-0.076l0.172,-0.076l0.171,-0.077l0.172,-0.078l0.171,-0.079l0.17,-0.08l0.169,-0.081l0.169,-0.082l0.168,-0.083l0.169,-0.084l0.167,-0.086l0.167,-0.086l0.165,-0.086l0.166,-0.089l0.165,-0.089l0.165,-0.09l0.163,-0.091l0.163,-0.091l0.163,-0.093l0.162,-0.094l0.161,-0.095l0.161,-0.096l0.16,-0.096l0.16,-0.098l0.159,-0.099l0.158,-0.099l0.158,-0.101l0.156,-0.101l0.157,-0.102l0.156,-0.103l0.154,-0.104l0.155,-0.105l0.154,-0.106l0.153,-0.107l0.152,-0.108l0.152,-0.108l0.151,-0.11l0.15,-0.11l0.15,-0.112l0.149,-0.112l0.148,-0.113l0.147,-0.114l0.148,-0.115l0.146,-0.115l0.146,-0.117l0.144,-0.117l0.144,-0.118l0.144,-0.12l0.142,-0.119l0.142,-0.121l0.141,-0.121l0.141,-0.123l0.139,-0.123l0.139,-0.124l0.138,-0.125l0.138,-0.126l0.137,-0.126l0.136,-0.127l0.135,-0.129l0.134,-0.129l0.134,-0.129l0.133,-0.131l0.132,-0.131l0.131,-0.132l0.131,-0.133l0.13,-0.134l0.128,-0.134l0.128,-0.135l0.128,-0.136l0.126,-0.137l0.126,-0.137l0.125,-0.138l0.124,-0.139l0.123,-0.14l0.123,-0.141l0.121,-0.141l0.121,-0.142l0.12,-0.142l0.119,-0.144l0.118,-0.144l0.117,-0.144l0.117,-0.146l0.116,-0.146l0.114,-0.147l0.114,-0.148l0.113,-0.148l0.112,-0.149l0.111,-0.15l0.111,-0.15l0.109,-0.151l0.109,-0.152l0.108,-0.152l0.107,-0.153l0.105,-0.154l0.105,-0.154l0.105,-0.156l0.103,-0.155l0.102,-0.156l0.101,-0.157l0.101,-0.158l0.099,-0.158l0.099,-0.159l0.097,-0.159l0.097,-0.161l0.096,-0.161l0.095,-0.161l0.093,-0.162l0.093,-0.162l0.092,-0.164l0.091,-0.163l0.09,-0.165l0.089,-0.165l0.088,-0.165l0.087,-0.166l0.086,-0.167l0.085,-0.167l0.085,-0.168l0.083,-0.169l0.082,-0.169l0.081,-0.169l0.08,-0.17l0.079,-0.171l0.078,-0.171l0.077,-0.172l0.076,-0.172l0.075,-0.173l0.074,-0.173l0.073,-0.174l0.072,-0.175l0.071,-0.174l0.07,-0.176l0.069,-0.176l0.068,-0.177l0.066,-0.177l0.066,-0.177l0.065,-0.178l0.063,-0.179l0.063,-0.179l0.061,-0.179l0.06,-0.18l0.06,-0.181l0.058,-0.181l0.057,-0.181l0.056,-0.182l0.055,-0.182l0.054,-0.184l0.053,-0.183l0.051,-0.183l0.051,-0.185l0.049,-0.184l0.048,-0.185l0.048,-0.186l0.046,-0.186l0.045,-0.187l0.044,-0.187l0.042,-0.187l0.042,-0.188l0.04,-0.188l0.039,-0.189l0.038,-0.189l0.037,-0.189l0.036,-0.191l0.035,-0.19l0.033,-0.191l0.033,-0.191l0.031,-0.191l0.03,-0.193l0.029,-0.192l0.027,-0.193l0.027,-0.193l0.025,-0.193l0.024,-0.195l0.023,-0.194l0.022,-0.195l0.02,-0.195l0.019,-0.196l0.019,-0.196l0.016,-0.196l0.016,-0.196l0.014,-0.198l0.014,-0.197l0.011,-0.198l0.011,-0.198l0.01,-0.199l0.008,-0.198l0.007,-0.2l0.005,-0.2l0.005,-0.199l0.003,-0.2l0.002,-0.201l0.001,-0.201l-0.001,-0.201l-0.002,-0.201l-0.003,-0.201l-0.005,-0.199l-0.005,-0.2l-0.007,-0.199l-0.008,-0.199l-0.01,-0.199l-0.011,-0.198l-0.011,-0.197l-0.014,-0.198l-0.014,-0.197l-0.016,-0.197l-0.016,-0.196l-0.019,-0.196l-0.019,-0.196l-0.02,-0.195l-0.022,-0.195l-0.023,-0.194l-0.024,-0.194l-0.025,-0.194l-0.027,-0.193l-0.027,-0.193l-0.029,-0.192l-0.03,-0.192l-0.031,-0.192l-0.033,-0.191l-0.033,-0.191l-0.035,-0.19l-0.036,-0.19l-0.037,-0.19l-0.038,-0.188l-0.039,-0.189l-0.04,-0.189l-0.042,-0.187l-0.043,-0.188l-0.043,-0.187l-0.045,-0.186l-0.046,-0.186l-0.048,-0.186l-0.048,-0.185l-0.049,-0.185l-0.051,-0.184l-0.051,-0.184l-0.053,-0.183l-0.054,-0.183l-0.055,-0.183l-0.056,-0.181l-0.057,-0.182l-0.058,-0.181l-0.06,-0.181l-0.06,-0.179l-0.061,-0.18l-0.063,-0.179l-0.063,-0.178l-0.065,-0.178l-0.066,-0.178l-0.066,-0.177l-0.068,-0.176l-0.069,-0.176l-0.07,-0.176l-0.071,-0.175l-0.072,-0.174l-0.073,-0.174l-0.074,-0.173l-0.075,-0.173l-0.076,-0.173l-0.077,-0.171l-0.078,-0.171l-0.079,-0.171l-0.08,-0.171l-0.081,-0.169l-0.082,-0.169l-0.083,-0.168l-0.084,-0.168l-0.086,-0.168l-0.086,-0.166l-0.087,-0.166l-0.088,-0.166l-0.089,-0.165l-0.09,-0.164l-0.091,-0.164l-0.092,-0.163l-0.093,-0.163l-0.093,-0.162l-0.095,-0.161l-0.096,-0.161l-0.097,-0.16l-0.097,-0.159l-0.099,-0.16l-0.099,-0.158l-0.101,-0.157l-0.101,-0.157l-0.102,-0.157l-0.103,-0.155l-0.104,-0.155l-0.106,-0.155l-0.106,-0.154l-0.106,-0.152l-0.108,-0.153l-0.109,-0.151l-0.109,-0.152l-0.11,-0.15l-0.112,-0.149l-0.112,-0.15l-0.113,-0.148l-0.114,-0.147l-0.115,-0.147l-0.115,-0.147l-0.117,-0.145l-0.117,-0.145l-0.118,-0.144l-0.119,-0.143l-0.12,-0.143l-0.121,-0.142l-0.121,-0.141l-0.123,-0.14l-0.123,-0.14l-0.124,-0.139l-0.125,-0.138l-0.126,-0.138l-0.126,-0.137l-0.128,-0.135l-0.128,-0.135l-0.129,-0.135l-0.129,-0.134l-0.131,-0.132l-0.131,-0.133l-0.132,-0.131l-0.133,-0.131l-0.134,-0.129l-0.134,-0.129l-0.135,-0.128l-0.136,-0.128l-0.137,-0.126l-0.137,-0.125l-0.139,-0.125l-0.139,-0.124l-0.139,-0.124l-0.141,-0.122l-0.141,-0.122l-0.142,-0.12l-0.142,-0.12l-0.144,-0.12l-0.144,-0.118l-0.145,-0.117l-0.145,-0.116l-0.146,-0.116l-0.148,-0.115l-0.147,-0.114l-0.148,-0.113l-0.149,-0.112l-0.15,-0.111l-0.15,-0.11l-0.151,-0.11l-0.152,-0.109l-0.152,-0.107l-0.154,-0.108l-0.153,-0.105l-0.154,-0.105l-0.156,-0.105l-0.155,-0.103l-0.157,-0.102l-0.156,-0.101l-0.158,-0.1l-0.159,-0.1l-0.159,-0.099l-0.158,-0.097l-0.161,-0.097l-0.161,-0.096l-0.161,-0.094l-0.162,-0.094l-0.162,-0.093l-0.164,-0.092l-0.163,-0.091l-0.165,-0.09l-0.165,-0.089l-0.165,-0.088l-0.166,-0.087l-0.167,-0.086l-0.167,-0.085l-0.168,-0.084l-0.169,-0.083l-0.169,-0.082l-0.169,-0.082l-0.171,-0.08l-0.17,-0.079l-0.171,-0.078l-0.172,-0.077l-0.172,-0.076l-0.173,-0.075l-0.174,-0.074l-0.173,-0.073l-0.175,-0.072l-0.175,-0.071l-0.175,-0.07l-0.176,-0.069l-0.176,-0.067l-0.178,-0.067l-0.178,-0.066l-0.178,-0.064l-0.178,-0.064l-0.178,-0.062l-0.18,-0.062l-0.18,-0.06l-0.181,-0.06l-0.181,-0.058l-0.181,-0.057l-0.182,-0.056l-0.183,-0.055l-0.182,-0.053l-0.184,-0.053l-0.184,-0.052l-0.184,-0.05l-0.184,-0.05l-0.186,-0.048l-0.185,-0.047l-0.186,-0.046l-0.187,-0.045l-0.187,-0.044l-0.187,-0.043l-0.188,-0.041l-0.188,-0.041l-0.189,-0.039l-0.189,-0.038l-0.19,-0.037l-0.19,-0.036l-0.19,-0.035l-0.191,-0.033l-0.191,-0.032l-0.192,-0.032l-0.192,-0.03l-0.192,-0.028l-0.193,-0.028l-0.193,-0.027l-0.194,-0.025l-0.194,-0.024l-0.194,-0.023l-0.195,-0.021l-0.195,-0.021l-0.196,-0.019l-0.196,-0.018l-0.196,-0.017l-0.197,-0.016l-0.197,-0.014l-0.197,-0.013l-0.198,-0.012l-0.198,-0.011l-0.199,-0.009l-0.198,-0.008l-0.199,-0.007l-0.201,-0.006l-0.2,-0.005l-0.2,-0.003l-0.201,-0.002l-0.2,0l-0.201,0Z" style="fill:#fcecdd;"/><circle cx="72.395" cy="167.31" r="36.5" style="fill:#ffff59;"/><path d="M72.63,130.81l0.236,0.003l0.235,0.003l0.235,0.006l0.235,0.006l0.234,0.009l0.233,0.009l0.234,0.011l0.233,0.013l0.232,0.014l0.232,0.015l0.232,0.017l0.232,0.019l0.231,0.019l0.23,0.022l0.23,0.022l0.23,0.024l0.229,0.026l0.229,0.027l0.229,0.028l0.228,0.03l0.227,0.031l0.227,0.033l0.227,0.034l0.226,0.035l0.226,0.037l0.225,0.038l0.225,0.039l0.225,0.041l0.223,0.042l0.224,0.044l0.223,0.045l0.222,0.046l0.222,0.048l0.222,0.049l0.22,0.05l0.221,0.052l0.22,0.053l0.219,0.054l0.219,0.056l0.218,0.057l0.218,0.058l0.217,0.059l0.217,0.061l0.216,0.063l0.216,0.063l0.215,0.065l0.215,0.066l0.214,0.067l0.213,0.069l0.213,0.07l0.212,0.071l0.212,0.072l0.211,0.074l0.21,0.075l0.21,0.076l0.209,0.077l0.209,0.079l0.208,0.08l0.208,0.081l0.207,0.083l0.206,0.083l0.205,0.085l0.205,0.086l0.205,0.087l0.203,0.089l0.203,0.089l0.203,0.091l0.202,0.092l0.201,0.093l0.2,0.095l0.2,0.095l0.199,0.097l0.199,0.098l0.197,0.099l0.197,0.1l0.197,0.102l0.195,0.102l0.195,0.104l0.195,0.105l0.193,0.106l0.193,0.107l0.192,0.108l0.192,0.109l0.19,0.111l0.19,0.112l0.19,0.112l0.188,0.114l0.188,0.115l0.187,0.116l0.186,0.117l0.186,0.118l0.185,0.12l0.184,0.12l0.183,0.121l0.182,0.123l0.182,0.123l0.181,0.125l0.18,0.126l0.179,0.127l0.179,0.127l0.177,0.129l0.177,0.13l0.176,0.131l0.176,0.132l0.174,0.133l0.174,0.134l0.173,0.135l0.171,0.136l0.172,0.137l0.17,0.138l0.169,0.139l0.169,0.14l0.168,0.141l0.167,0.142l0.166,0.143l0.165,0.144l0.164,0.145l0.163,0.146l0.163,0.146l0.162,0.148l0.16,0.149l0.16,0.15l0.159,0.15l0.158,0.152l0.157,0.153l0.157,0.153l0.155,0.154l0.154,0.156l0.154,0.156l0.152,0.157l0.152,0.158l0.151,0.159l0.149,0.16l0.149,0.161l0.148,0.161l0.147,0.163l0.146,0.163l0.144,0.165l0.144,0.165l0.143,0.166l0.142,0.167l0.141,0.167l0.14,0.169l0.139,0.169l0.138,0.171l0.137,0.171l0.136,0.172l0.135,0.173l0.134,0.173l0.133,0.175l0.132,0.175l0.131,0.176l0.13,0.177l0.129,0.178l0.128,0.178l0.127,0.179l0.125,0.181l0.125,0.18l0.123,0.182l0.123,0.183l0.121,0.183l0.121,0.184l0.119,0.185l0.118,0.185l0.117,0.186l0.116,0.187l0.115,0.188l0.114,0.189l0.113,0.189l0.111,0.19l0.111,0.191l0.109,0.191l0.108,0.192l0.108,0.193l0.106,0.194l0.104,0.194l0.104,0.195l0.103,0.196l0.101,0.196l0.1,0.197l0.099,0.198l0.098,0.198l0.097,0.199l0.096,0.2l0.094,0.201l0.093,0.201l0.092,0.201l0.091,0.203l0.09,0.203l0.088,0.204l0.087,0.204l0.086,0.205l0.085,0.206l0.084,0.206l0.082,0.207l0.081,0.207l0.08,0.208l0.079,0.209l0.077,0.209l0.076,0.21l0.075,0.211l0.074,0.211l0.072,0.211l0.072,0.213l0.07,0.212l0.068,0.214l0.067,0.214l0.067,0.214l0.064,0.215l0.064,0.216l0.062,0.216l0.061,0.217l0.059,0.217l0.059,0.218l0.057,0.218l0.055,0.219l0.055,0.22l0.053,0.219l0.051,0.221l0.051,0.221l0.049,0.221l0.047,0.222l0.046,0.223l0.045,0.222l0.044,0.224l0.042,0.224l0.041,0.224l0.04,0.225l0.038,0.225l0.036,0.226l0.036,0.226l0.034,0.227l0.032,0.227l0.031,0.228l0.03,0.228l0.028,0.228l0.027,0.229l0.026,0.229l0.024,0.23l0.023,0.23l0.021,0.231l0.02,0.231l0.018,0.231l0.017,0.232l0.015,0.232l0.015,0.233l0.012,0.233l0.011,0.233l0.01,0.234l0.008,0.234l0.007,0.234l0.005,0.235l0.004,0.235l0.002,0.236l0.001,0.236l-0.001,0.236l-0.002,0.235l-0.004,0.235l-0.005,0.235l-0.007,0.235l-0.008,0.234l-0.01,0.233l-0.011,0.234l-0.012,0.233l-0.015,0.232l-0.015,0.233l-0.017,0.231l-0.018,0.232l-0.02,0.231l-0.021,0.23l-0.023,0.23l-0.024,0.23l-0.026,0.229l-0.027,0.229l-0.028,0.229l-0.03,0.228l-0.031,0.227l-0.032,0.228l-0.034,0.226l-0.036,0.226l-0.036,0.226l-0.038,0.225l-0.04,0.225l-0.041,0.225l-0.042,0.224l-0.044,0.223l-0.045,0.223l-0.046,0.222l-0.047,0.222l-0.049,0.222l-0.051,0.221l-0.051,0.22l-0.053,0.22l-0.055,0.219l-0.055,0.219l-0.057,0.218l-0.059,0.218l-0.059,0.218l-0.061,0.216l-0.062,0.216l-0.064,0.216l-0.064,0.215l-0.067,0.215l-0.067,0.214l-0.068,0.213l-0.07,0.213l-0.072,0.212l-0.072,0.212l-0.074,0.211l-0.075,0.21l-0.076,0.21l-0.077,0.21l-0.079,0.208l-0.08,0.208l-0.081,0.208l-0.082,0.207l-0.084,0.206l-0.085,0.205l-0.086,0.205l-0.087,0.205l-0.088,0.204l-0.09,0.203l-0.091,0.202l-0.092,0.202l-0.093,0.201l-0.094,0.2l-0.096,0.2l-0.097,0.199l-0.098,0.199l-0.099,0.197l-0.1,0.197l-0.101,0.197l-0.103,0.196l-0.104,0.195l-0.104,0.194l-0.106,0.193l-0.108,0.193l-0.108,0.192l-0.109,0.192l-0.111,0.191l-0.111,0.19l-0.113,0.189l-0.114,0.188l-0.115,0.188l-0.116,0.187l-0.117,0.186l-0.118,0.186l-0.119,0.185l-0.121,0.184l-0.121,0.183l-0.123,0.182l-0.123,0.182l-0.125,0.181l-0.125,0.18l-0.127,0.179l-0.128,0.179l-0.129,0.177l-0.13,0.177l-0.131,0.176l-0.132,0.176l-0.133,0.174l-0.134,0.174l-0.135,0.173l-0.136,0.172l-0.137,0.171l-0.138,0.17l-0.139,0.169l-0.14,0.169l-0.141,0.168l-0.142,0.167l-0.143,0.166l-0.144,0.165l-0.144,0.164l-0.146,0.164l-0.147,0.162l-0.148,0.162l-0.149,0.161l-0.149,0.159l-0.151,0.159l-0.152,0.158l-0.152,0.158l-0.154,0.156l-0.154,0.155l-0.155,0.154l-0.157,0.154l-0.157,0.152l-0.158,0.152l-0.159,0.151l-0.16,0.149l-0.16,0.149l-0.162,0.148l-0.163,0.147l-0.163,0.146l-0.164,0.145l-0.165,0.144l-0.166,0.143l-0.167,0.142l-0.168,0.141l-0.169,0.14l-0.169,0.139l-0.17,0.138l-0.172,0.137l-0.171,0.136l-0.173,0.135l-0.174,0.134l-0.174,0.133l-0.176,0.131l-0.176,0.131l-0.177,0.13l-0.177,0.129l-0.179,0.128l-0.179,0.127l-0.18,0.125l-0.181,0.125l-0.182,0.124l-0.182,0.122l-0.183,0.121l-0.184,0.121l-0.185,0.119l-0.186,0.118l-0.186,0.117l-0.187,0.116l-0.188,0.115l-0.188,0.114l-0.19,0.113l-0.19,0.111l-0.19,0.111l-0.192,0.109l-0.192,0.109l-0.193,0.107l-0.193,0.106l-0.195,0.104l-0.195,0.104l-0.195,0.103l-0.197,0.101l-0.197,0.1l-0.197,0.099l-0.199,0.098l-0.199,0.097l-0.2,0.096l-0.2,0.094l-0.201,0.093l-0.202,0.092l-0.203,0.091l-0.203,0.09l-0.203,0.088l-0.205,0.087l-0.205,0.086l-0.205,0.085l-0.206,0.084l-0.207,0.082l-0.208,0.081l-0.208,0.08l-0.209,0.079l-0.209,0.077l-0.21,0.077l-0.21,0.075l-0.211,0.073l-0.212,0.073l-0.212,0.071l-0.213,0.07l-0.213,0.068l-0.214,0.068l-0.215,0.066l-0.215,0.064l-0.216,0.064l-0.216,0.062l-0.217,0.061l-0.217,0.06l-0.218,0.058l-0.218,0.057l-0.219,0.055l-0.219,0.055l-0.22,0.053l-0.221,0.051l-0.22,0.051l-0.222,0.049l-0.222,0.047l-0.222,0.047l-0.223,0.045l-0.224,0.043l-0.223,0.042l-0.225,0.041l-0.225,0.04l-0.225,0.038l-0.226,0.036l-0.226,0.036l-0.227,0.034l-0.227,0.032l-0.227,0.031l-0.228,0.03l-0.229,0.029l-0.229,0.027l-0.229,0.025l-0.23,0.024l-0.23,0.023l-0.23,0.021l-0.231,0.02l-0.232,0.018l-0.232,0.017l-0.232,0.016l-0.232,0.014l-0.233,0.012l-0.234,0.011l-0.233,0.01l-0.234,0.008l-0.235,0.007l-0.235,0.005l-0.235,0.004l-0.236,0.002l-0.235,0.001l-0.236,-0.001l-0.236,-0.002l-0.235,-0.004l-0.235,-0.005l-0.234,-0.007l-0.234,-0.008l-0.234,-0.01l-0.233,-0.011l-0.233,-0.012l-0.233,-0.014l-0.232,-0.016l-0.232,-0.017l-0.231,-0.018l-0.231,-0.02l-0.231,-0.021l-0.23,-0.023l-0.23,-0.024l-0.229,-0.025l-0.229,-0.027l-0.228,-0.029l-0.228,-0.03l-0.228,-0.031l-0.227,-0.032l-0.227,-0.034l-0.226,-0.036l-0.226,-0.036l-0.225,-0.038l-0.225,-0.04l-0.224,-0.041l-0.224,-0.042l-0.224,-0.043l-0.223,-0.045l-0.222,-0.047l-0.222,-0.047l-0.221,-0.049l-0.221,-0.051l-0.221,-0.051l-0.22,-0.053l-0.219,-0.055l-0.219,-0.055l-0.218,-0.057l-0.218,-0.058l-0.217,-0.06l-0.217,-0.061l-0.216,-0.062l-0.216,-0.064l-0.215,-0.064l-0.214,-0.066l-0.214,-0.068l-0.214,-0.068l-0.213,-0.07l-0.212,-0.071l-0.211,-0.073l-0.212,-0.073l-0.21,-0.075l-0.21,-0.077l-0.209,-0.077l-0.209,-0.079l-0.208,-0.08l-0.207,-0.081l-0.207,-0.082l-0.207,-0.084l-0.205,-0.085l-0.205,-0.086l-0.205,-0.087l-0.203,-0.088l-0.203,-0.09l-0.203,-0.091l-0.201,-0.092l-0.202,-0.093l-0.2,-0.094l-0.2,-0.096l-0.199,-0.097l-0.198,-0.098l-0.198,-0.099l-0.197,-0.1l-0.197,-0.101l-0.195,-0.103l-0.195,-0.104l-0.194,-0.104l-0.194,-0.106l-0.193,-0.107l-0.192,-0.109l-0.192,-0.109l-0.19,-0.111l-0.19,-0.111l-0.189,-0.113l-0.189,-0.114l-0.188,-0.115l-0.187,-0.116l-0.186,-0.117l-0.186,-0.118l-0.184,-0.119l-0.184,-0.121l-0.184,-0.121l-0.182,-0.122l-0.182,-0.124l-0.181,-0.125l-0.18,-0.125l-0.179,-0.127l-0.178,-0.128l-0.178,-0.129l-0.177,-0.13l-0.176,-0.131l-0.175,-0.131l-0.175,-0.133l-0.174,-0.134l-0.172,-0.135l-0.172,-0.136l-0.171,-0.137l-0.171,-0.138l-0.169,-0.139l-0.169,-0.14l-0.168,-0.141l-0.166,-0.142l-0.166,-0.143l-0.166,-0.144l-0.164,-0.145l-0.163,-0.146l-0.163,-0.147l-0.161,-0.148l-0.161,-0.149l-0.16,-0.149l-0.159,-0.151l-0.158,-0.152l-0.157,-0.152l-0.156,-0.154l-0.156,-0.154l-0.154,-0.155l-0.154,-0.156l-0.152,-0.158l-0.152,-0.158l-0.15,-0.159l-0.15,-0.159l-0.149,-0.161l-0.148,-0.162l-0.146,-0.162l-0.146,-0.164l-0.145,-0.164l-0.144,-0.165l-0.143,-0.166l-0.142,-0.167l-0.141,-0.168l-0.14,-0.169l-0.139,-0.169l-0.138,-0.17l-0.137,-0.171l-0.136,-0.172l-0.135,-0.173l-0.134,-0.174l-0.133,-0.174l-0.132,-0.176l-0.131,-0.176l-0.13,-0.177l-0.129,-0.177l-0.128,-0.179l-0.126,-0.179l-0.126,-0.18l-0.125,-0.181l-0.123,-0.182l-0.123,-0.182l-0.121,-0.183l-0.121,-0.184l-0.119,-0.185l-0.118,-0.186l-0.117,-0.186l-0.116,-0.187l-0.115,-0.188l-0.114,-0.188l-0.113,-0.189l-0.111,-0.19l-0.111,-0.191l-0.109,-0.192l-0.108,-0.192l-0.107,-0.193l-0.106,-0.193l-0.105,-0.194l-0.104,-0.195l-0.102,-0.196l-0.102,-0.197l-0.1,-0.197l-0.099,-0.197l-0.098,-0.199l-0.097,-0.199l-0.095,-0.2l-0.095,-0.2l-0.093,-0.201l-0.092,-0.202l-0.091,-0.202l-0.089,-0.203l-0.089,-0.204l-0.087,-0.205l-0.086,-0.205l-0.085,-0.205l-0.084,-0.206l-0.082,-0.207l-0.081,-0.208l-0.08,-0.208l-0.079,-0.208l-0.077,-0.21l-0.076,-0.21l-0.075,-0.21l-0.074,-0.211l-0.072,-0.212l-0.071,-0.212l-0.07,-0.213l-0.069,-0.213l-0.067,-0.214l-0.066,-0.215l-0.065,-0.215l-0.064,-0.216l-0.062,-0.216l-0.061,-0.216l-0.059,-0.218l-0.058,-0.218l-0.057,-0.218l-0.056,-0.219l-0.054,-0.219l-0.053,-0.22l-0.052,-0.22l-0.05,-0.221l-0.049,-0.222l-0.048,-0.222l-0.046,-0.222l-0.045,-0.223l-0.044,-0.223l-0.042,-0.224l-0.041,-0.225l-0.039,-0.225l-0.038,-0.225l-0.037,-0.226l-0.036,-0.226l-0.033,-0.226l-0.033,-0.228l-0.031,-0.227l-0.03,-0.228l-0.028,-0.229l-0.027,-0.229l-0.026,-0.229l-0.024,-0.23l-0.022,-0.23l-0.022,-0.23l-0.02,-0.231l-0.018,-0.232l-0.017,-0.231l-0.015,-0.233l-0.014,-0.232l-0.013,-0.233l-0.011,-0.234l-0.01,-0.233l-0.008,-0.234l-0.006,-0.235l-0.006,-0.235l-0.003,-0.235l-0.003,-0.235l0,-0.236l0,-0.236l0.003,-0.236l0.003,-0.235l0.006,-0.235l0.006,-0.234l0.008,-0.234l0.01,-0.234l0.011,-0.233l0.013,-0.233l0.014,-0.233l0.015,-0.232l0.017,-0.232l0.018,-0.231l0.02,-0.231l0.022,-0.231l0.022,-0.23l0.024,-0.23l0.026,-0.229l0.027,-0.229l0.028,-0.228l0.03,-0.228l0.031,-0.228l0.033,-0.227l0.033,-0.227l0.036,-0.226l0.037,-0.226l0.038,-0.225l0.039,-0.225l0.041,-0.224l0.042,-0.224l0.044,-0.224l0.045,-0.222l0.046,-0.223l0.048,-0.222l0.049,-0.221l0.05,-0.221l0.052,-0.221l0.053,-0.219l0.054,-0.22l0.056,-0.219l0.057,-0.218l0.058,-0.218l0.059,-0.217l0.061,-0.217l0.062,-0.216l0.064,-0.216l0.065,-0.215l0.066,-0.214l0.067,-0.214l0.069,-0.214l0.07,-0.212l0.071,-0.213l0.072,-0.211l0.074,-0.211l0.075,-0.211l0.076,-0.21l0.077,-0.209l0.079,-0.209l0.08,-0.208l0.081,-0.207l0.082,-0.207l0.084,-0.206l0.085,-0.206l0.086,-0.205l0.087,-0.204l0.089,-0.204l0.089,-0.203l0.091,-0.203l0.092,-0.201l0.093,-0.201l0.095,-0.201l0.095,-0.2l0.097,-0.199l0.098,-0.198l0.099,-0.198l0.1,-0.197l0.102,-0.196l0.102,-0.196l0.104,-0.195l0.105,-0.194l0.106,-0.194l0.107,-0.193l0.108,-0.192l0.109,-0.191l0.111,-0.191l0.111,-0.19l0.113,-0.189l0.114,-0.189l0.115,-0.188l0.116,-0.187l0.117,-0.186l0.118,-0.185l0.119,-0.185l0.121,-0.184l0.121,-0.183l0.123,-0.183l0.123,-0.182l0.125,-0.18l0.126,-0.181l0.126,-0.179l0.128,-0.178l0.129,-0.178l0.13,-0.177l0.131,-0.176l0.132,-0.175l0.133,-0.175l0.134,-0.173l0.135,-0.173l0.136,-0.172l0.137,-0.171l0.138,-0.171l0.139,-0.169l0.14,-0.169l0.141,-0.167l0.142,-0.167l0.143,-0.166l0.144,-0.165l0.145,-0.165l0.146,-0.163l0.146,-0.163l0.148,-0.161l0.149,-0.161l0.15,-0.16l0.15,-0.159l0.152,-0.158l0.152,-0.157l0.154,-0.156l0.154,-0.156l0.156,-0.154l0.156,-0.153l0.157,-0.153l0.158,-0.152l0.159,-0.15l0.16,-0.15l0.161,-0.149l0.161,-0.148l0.163,-0.146l0.163,-0.146l0.164,-0.145l0.166,-0.144l0.166,-0.143l0.166,-0.142l0.168,-0.141l0.169,-0.14l0.169,-0.139l0.171,-0.138l0.171,-0.137l0.172,-0.136l0.172,-0.135l0.174,-0.134l0.175,-0.133l0.175,-0.132l0.176,-0.131l0.177,-0.13l0.178,-0.129l0.178,-0.127l0.179,-0.127l0.18,-0.126l0.181,-0.125l0.182,-0.123l0.182,-0.123l0.184,-0.121l0.184,-0.12l0.184,-0.12l0.186,-0.118l0.186,-0.117l0.187,-0.116l0.188,-0.115l0.189,-0.114l0.189,-0.112l0.19,-0.112l0.19,-0.111l0.192,-0.109l0.192,-0.108l0.193,-0.107l0.194,-0.106l0.194,-0.105l0.195,-0.104l0.195,-0.102l0.197,-0.102l0.197,-0.1l0.198,-0.099l0.198,-0.098l0.199,-0.097l0.2,-0.095l0.2,-0.095l0.202,-0.093l0.201,-0.092l0.203,-0.091l0.203,-0.089l0.203,-0.089l0.205,-0.087l0.205,-0.086l0.205,-0.085l0.207,-0.083l0.207,-0.083l0.207,-0.081l0.208,-0.08l0.209,-0.079l0.209,-0.077l0.21,-0.076l0.21,-0.075l0.212,-0.074l0.211,-0.072l0.212,-0.071l0.213,-0.07l0.214,-0.069l0.214,-0.067l0.214,-0.066l0.215,-0.065l0.216,-0.063l0.216,-0.063l0.217,-0.061l0.217,-0.059l0.218,-0.058l0.218,-0.057l0.219,-0.056l0.219,-0.054l0.22,-0.053l0.221,-0.052l0.221,-0.05l0.221,-0.049l0.222,-0.048l0.222,-0.046l0.223,-0.045l0.224,-0.044l0.224,-0.042l0.224,-0.041l0.225,-0.039l0.225,-0.038l0.226,-0.037l0.226,-0.035l0.227,-0.034l0.227,-0.033l0.228,-0.031l0.228,-0.03l0.228,-0.028l0.229,-0.027l0.229,-0.026l0.23,-0.024l0.23,-0.022l0.231,-0.022l0.231,-0.019l0.231,-0.019l0.232,-0.017l0.232,-0.015l0.233,-0.014l0.233,-0.013l0.233,-0.011l0.234,-0.009l0.234,-0.009l0.234,-0.006l0.235,-0.006l0.235,-0.003l0.236,-0.003l0.236,0l0.235,0Zm-0.437,5.5l-0.201,0.002l-0.199,0.003l-0.2,0.005l-0.2,0.006l-0.199,0.007l-0.199,0.008l-0.199,0.009l-0.198,0.011l-0.197,0.012l-0.198,0.013l-0.198,0.014l-0.195,0.016l-0.197,0.017l-0.197,0.018l-0.195,0.019l-0.195,0.021l-0.194,0.021l-0.195,0.023l-0.195,0.024l-0.193,0.025l-0.193,0.027l-0.193,0.028l-0.192,0.028l-0.192,0.03l-0.192,0.032l-0.191,0.032l-0.19,0.033l-0.191,0.035l-0.19,0.036l-0.19,0.037l-0.189,0.038l-0.188,0.039l-0.189,0.041l-0.188,0.041l-0.187,0.043l-0.187,0.044l-0.186,0.045l-0.187,0.046l-0.185,0.047l-0.185,0.048l-0.185,0.05l-0.184,0.05l-0.184,0.052l-0.184,0.053l-0.182,0.053l-0.183,0.055l-0.181,0.056l-0.182,0.057l-0.181,0.059l-0.18,0.059l-0.18,0.06l-0.18,0.062l-0.179,0.062l-0.179,0.064l-0.177,0.064l-0.178,0.066l-0.177,0.067l-0.176,0.067l-0.177,0.069l-0.175,0.07l-0.175,0.071l-0.175,0.072l-0.173,0.073l-0.173,0.074l-0.174,0.075l-0.172,0.076l-0.171,0.077l-0.172,0.078l-0.171,0.08l-0.17,0.079l-0.169,0.082l-0.169,0.082l-0.168,0.083l-0.168,0.084l-0.168,0.085l-0.166,0.086l-0.166,0.087l-0.166,0.088l-0.165,0.089l-0.164,0.09l-0.164,0.091l-0.163,0.092l-0.163,0.093l-0.162,0.094l-0.161,0.095l-0.161,0.095l-0.16,0.097l-0.16,0.098l-0.159,0.098l-0.157,0.099l-0.158,0.101l-0.157,0.101l-0.156,0.102l-0.156,0.104l-0.155,0.104l-0.155,0.105l-0.153,0.106l-0.154,0.107l-0.152,0.107l-0.151,0.109l-0.152,0.11l-0.15,0.11l-0.149,0.111l-0.15,0.113l-0.148,0.112l-0.147,0.114l-0.147,0.115l-0.147,0.116l-0.145,0.116l-0.145,0.117l-0.144,0.118l-0.144,0.12l-0.142,0.12l-0.142,0.12l-0.141,0.122l-0.141,0.122l-0.139,0.124l-0.139,0.123l-0.138,0.125l-0.138,0.126l-0.137,0.127l-0.135,0.127l-0.135,0.128l-0.135,0.129l-0.134,0.13l-0.132,0.13l-0.133,0.131l-0.131,0.132l-0.13,0.133l-0.13,0.134l-0.129,0.135l-0.128,0.135l-0.127,0.135l-0.127,0.137l-0.126,0.138l-0.125,0.138l-0.124,0.139l-0.123,0.14l-0.122,0.14l-0.122,0.141l-0.121,0.142l-0.12,0.143l-0.118,0.143l-0.119,0.144l-0.117,0.145l-0.117,0.146l-0.115,0.146l-0.115,0.146l-0.114,0.148l-0.113,0.149l-0.112,0.149l-0.111,0.149l-0.111,0.15l-0.109,0.152l-0.109,0.151l-0.108,0.153l-0.107,0.153l-0.105,0.153l-0.105,0.155l-0.105,0.155l-0.103,0.156l-0.102,0.156l-0.101,0.157l-0.1,0.157l-0.1,0.159l-0.099,0.159l-0.097,0.159l-0.097,0.16l-0.096,0.161l-0.094,0.161l-0.094,0.162l-0.093,0.163l-0.092,0.163l-0.091,0.164l-0.09,0.164l-0.089,0.165l-0.088,0.166l-0.087,0.166l-0.086,0.166l-0.085,0.168l-0.084,0.167l-0.083,0.169l-0.083,0.169l-0.081,0.169l-0.08,0.171l-0.079,0.17l-0.078,0.172l-0.077,0.171l-0.076,0.172l-0.075,0.174l-0.074,0.173l-0.073,0.174l-0.072,0.174l-0.071,0.175l-0.07,0.175l-0.069,0.177l-0.067,0.176l-0.067,0.177l-0.066,0.178l-0.064,0.178l-0.064,0.178l-0.062,0.179l-0.062,0.18l-0.06,0.18l-0.06,0.18l-0.058,0.181l-0.057,0.181l-0.056,0.183l-0.055,0.182l-0.054,0.183l-0.052,0.183l-0.052,0.184l-0.05,0.184l-0.05,0.185l-0.048,0.185l-0.047,0.186l-0.046,0.186l-0.045,0.186l-0.044,0.187l-0.043,0.187l-0.041,0.188l-0.041,0.189l-0.039,0.188l-0.038,0.19l-0.037,0.189l-0.036,0.19l-0.035,0.19l-0.033,0.191l-0.033,0.191l-0.031,0.192l-0.03,0.192l-0.029,0.192l-0.027,0.193l-0.027,0.193l-0.025,0.194l-0.024,0.194l-0.023,0.194l-0.022,0.195l-0.02,0.195l-0.019,0.196l-0.018,0.196l-0.017,0.196l-0.016,0.197l-0.014,0.197l-0.013,0.197l-0.012,0.198l-0.011,0.198l-0.009,0.199l-0.009,0.199l-0.007,0.199l-0.005,0.2l-0.005,0.2l-0.003,0.2l-0.002,0.201l0,0.201l0,0.201l0.002,0.2l0.003,0.201l0.005,0.2l0.005,0.199l0.007,0.199l0.009,0.2l0.009,0.198l0.011,0.198l0.012,0.198l0.013,0.197l0.014,0.197l0.016,0.197l0.017,0.197l0.018,0.195l0.019,0.196l0.02,0.195l0.022,0.195l0.023,0.194l0.024,0.194l0.025,0.194l0.027,0.193l0.027,0.193l0.029,0.192l0.03,0.192l0.031,0.192l0.033,0.192l0.033,0.19l0.035,0.19l0.036,0.19l0.037,0.19l0.038,0.189l0.039,0.189l0.041,0.188l0.041,0.188l0.043,0.187l0.044,0.187l0.045,0.187l0.046,0.186l0.047,0.185l0.048,0.185l0.05,0.186l0.05,0.184l0.052,0.183l0.052,0.183l0.054,0.183l0.055,0.183l0.056,0.182l0.057,0.182l0.058,0.18l0.06,0.18l0.06,0.181l0.061,0.179l0.063,0.179l0.064,0.179l0.064,0.178l0.066,0.177l0.067,0.177l0.067,0.177l0.069,0.176l0.07,0.175l0.071,0.175l0.072,0.175l0.073,0.174l0.074,0.173l0.075,0.173l0.076,0.172l0.077,0.172l0.078,0.171l0.079,0.171l0.08,0.17l0.081,0.169l0.083,0.17l0.083,0.168l0.084,0.167l0.085,0.168l0.086,0.167l0.087,0.166l0.088,0.165l0.089,0.165l0.09,0.165l0.091,0.163l0.092,0.164l0.093,0.162l0.094,0.162l0.094,0.161l0.096,0.161l0.097,0.161l0.097,0.159l0.099,0.159l0.099,0.158l0.101,0.157l0.101,0.158l0.102,0.156l0.104,0.156l0.104,0.155l0.105,0.154l0.106,0.154l0.107,0.153l0.107,0.152l0.109,0.152l0.109,0.151l0.111,0.15l0.111,0.15l0.112,0.149l0.113,0.148l0.114,0.148l0.115,0.147l0.116,0.146l0.116,0.146l0.117,0.144l0.118,0.144l0.119,0.143l0.121,0.143l0.12,0.142l0.122,0.141l0.122,0.141l0.123,0.14l0.124,0.138l0.125,0.138l0.126,0.138l0.127,0.137l0.127,0.136l0.128,0.135l0.129,0.135l0.13,0.133l0.13,0.133l0.131,0.132l0.133,0.131l0.132,0.131l0.134,0.13l0.134,0.128l0.135,0.128l0.137,0.128l0.136,0.126l0.137,0.126l0.139,0.125l0.139,0.124l0.139,0.123l0.141,0.123l0.141,0.121l0.142,0.121l0.142,0.12l0.144,0.119l0.144,0.118l0.145,0.117l0.146,0.117l0.146,0.116l0.146,0.114l0.148,0.114l0.148,0.113l0.15,0.112l0.149,0.111l0.15,0.111l0.152,0.11l0.151,0.108l0.152,0.108l0.154,0.107l0.153,0.106l0.154,0.104l0.156,0.105l0.156,0.103l0.156,0.102l0.157,0.101l0.157,0.101l0.159,0.099l0.159,0.099l0.159,0.097l0.16,0.097l0.161,0.096l0.161,0.095l0.162,0.094l0.162,0.092l0.164,0.092l0.164,0.091l0.164,0.09l0.165,0.089l0.165,0.088l0.167,0.087l0.167,0.087l0.167,0.085l0.167,0.084l0.169,0.083l0.169,0.082l0.169,0.081l0.171,0.08l0.17,0.079l0.171,0.078l0.173,0.078l0.171,0.075l0.173,0.075l0.174,0.075l0.173,0.072l0.175,0.072l0.175,0.071l0.175,0.07l0.177,0.069l0.176,0.068l0.177,0.066l0.178,0.066l0.178,0.065l0.178,0.063l0.179,0.063l0.179,0.061l0.181,0.061l0.18,0.059l0.181,0.058l0.181,0.057l0.182,0.056l0.183,0.055l0.182,0.054l0.184,0.053l0.184,0.051l0.184,0.051l0.184,0.049l0.186,0.049l0.185,0.047l0.186,0.046l0.187,0.045l0.188,0.044l0.186,0.042l0.188,0.042l0.189,0.04l0.188,0.039l0.189,0.039l0.19,0.037l0.19,0.035l0.19,0.035l0.191,0.034l0.191,0.032l0.192,0.031l0.192,0.03l0.192,0.029l0.193,0.028l0.193,0.026l0.194,0.025l0.194,0.024l0.194,0.023l0.195,0.022l0.195,0.02l0.196,0.02l0.196,0.018l0.196,0.016l0.197,0.016l0.197,0.014l0.197,0.014l0.198,0.012l0.198,0.01l0.199,0.01l0.199,0.008l0.199,0.007l0.2,0.006l0.2,0.004l0.2,0.003l0.201,0.002l0.201,0.001l0.2,-0.001l0.201,-0.002l0.2,-0.003l0.2,-0.004l0.201,-0.006l0.199,-0.007l0.198,-0.008l0.199,-0.01l0.198,-0.01l0.198,-0.012l0.197,-0.014l0.197,-0.014l0.197,-0.016l0.196,-0.016l0.196,-0.018l0.196,-0.02l0.195,-0.02l0.195,-0.022l0.194,-0.023l0.194,-0.024l0.194,-0.025l0.193,-0.026l0.193,-0.028l0.192,-0.029l0.192,-0.03l0.192,-0.031l0.191,-0.032l0.191,-0.034l0.19,-0.035l0.19,-0.035l0.19,-0.037l0.189,-0.039l0.189,-0.039l0.188,-0.04l0.188,-0.042l0.187,-0.042l0.187,-0.044l0.187,-0.045l0.186,-0.046l0.185,-0.047l0.186,-0.049l0.184,-0.049l0.184,-0.051l0.184,-0.051l0.184,-0.053l0.182,-0.054l0.183,-0.055l0.182,-0.056l0.181,-0.057l0.181,-0.058l0.181,-0.059l0.18,-0.061l0.18,-0.061l0.178,-0.063l0.178,-0.063l0.178,-0.065l0.178,-0.066l0.178,-0.066l0.176,-0.068l0.176,-0.069l0.175,-0.07l0.175,-0.071l0.175,-0.072l0.173,-0.072l0.174,-0.075l0.173,-0.075l0.172,-0.076l0.172,-0.077l0.171,-0.078l0.17,-0.079l0.171,-0.08l0.169,-0.081l0.169,-0.082l0.169,-0.083l0.168,-0.084l0.167,-0.085l0.167,-0.087l0.166,-0.087l0.165,-0.088l0.165,-0.089l0.165,-0.09l0.163,-0.091l0.164,-0.092l0.162,-0.092l0.162,-0.094l0.161,-0.095l0.161,-0.096l0.161,-0.097l0.158,-0.097l0.159,-0.099l0.159,-0.099l0.158,-0.101l0.156,-0.101l0.157,-0.102l0.155,-0.103l0.156,-0.105l0.154,-0.104l0.153,-0.106l0.154,-0.107l0.152,-0.108l0.152,-0.108l0.151,-0.11l0.15,-0.111l0.15,-0.111l0.149,-0.112l0.148,-0.113l0.148,-0.114l0.147,-0.114l0.146,-0.116l0.145,-0.117l0.145,-0.117l0.144,-0.118l0.144,-0.12l0.142,-0.119l0.142,-0.121l0.141,-0.121l0.141,-0.123l0.139,-0.123l0.139,-0.124l0.139,-0.125l0.137,-0.126l0.137,-0.126l0.136,-0.128l0.135,-0.128l0.134,-0.128l0.134,-0.13l0.133,-0.131l0.132,-0.131l0.131,-0.132l0.131,-0.133l0.129,-0.133l0.129,-0.135l0.128,-0.135l0.128,-0.136l0.126,-0.137l0.126,-0.138l0.125,-0.137l0.124,-0.139l0.123,-0.14l0.123,-0.141l0.121,-0.141l0.121,-0.142l0.12,-0.142l0.119,-0.144l0.118,-0.144l0.117,-0.144l0.117,-0.146l0.115,-0.146l0.115,-0.147l0.114,-0.148l0.113,-0.148l0.112,-0.149l0.112,-0.15l0.11,-0.15l0.109,-0.151l0.109,-0.152l0.108,-0.152l0.106,-0.153l0.106,-0.154l0.106,-0.155l0.104,-0.154l0.103,-0.156l0.102,-0.156l0.101,-0.158l0.101,-0.157l0.099,-0.158l0.099,-0.159l0.097,-0.159l0.097,-0.161l0.096,-0.161l0.095,-0.161l0.093,-0.162l0.093,-0.162l0.092,-0.164l0.091,-0.163l0.09,-0.165l0.089,-0.165l0.088,-0.165l0.087,-0.166l0.086,-0.167l0.086,-0.168l0.084,-0.167l0.083,-0.169l0.082,-0.169l0.081,-0.169l0.08,-0.17l0.079,-0.171l0.078,-0.171l0.077,-0.172l0.076,-0.172l0.075,-0.173l0.074,-0.173l0.073,-0.174l0.072,-0.175l0.071,-0.175l0.07,-0.175l0.069,-0.176l0.068,-0.177l0.066,-0.177l0.066,-0.177l0.065,-0.178l0.063,-0.179l0.063,-0.179l0.061,-0.179l0.06,-0.18l0.06,-0.181l0.058,-0.18l0.057,-0.182l0.056,-0.182l0.055,-0.182l0.054,-0.184l0.053,-0.183l0.051,-0.183l0.051,-0.185l0.049,-0.185l0.048,-0.184l0.048,-0.186l0.046,-0.186l0.045,-0.187l0.043,-0.187l0.043,-0.187l0.042,-0.188l0.04,-0.188l0.039,-0.189l0.038,-0.189l0.037,-0.189l0.036,-0.191l0.035,-0.19l0.033,-0.19l0.033,-0.192l0.031,-0.192l0.03,-0.192l0.029,-0.192l0.027,-0.193l0.027,-0.193l0.025,-0.194l0.024,-0.194l0.023,-0.194l0.022,-0.195l0.02,-0.195l0.019,-0.196l0.019,-0.196l0.016,-0.196l0.016,-0.196l0.014,-0.198l0.014,-0.197l0.011,-0.198l0.011,-0.198l0.01,-0.199l0.008,-0.198l0.007,-0.2l0.005,-0.199l0.005,-0.2l0.003,-0.2l0.002,-0.201l0.001,-0.201l-0.001,-0.201l-0.002,-0.201l-0.003,-0.201l-0.005,-0.199l-0.005,-0.2l-0.007,-0.199l-0.008,-0.199l-0.01,-0.199l-0.011,-0.198l-0.011,-0.197l-0.014,-0.198l-0.014,-0.197l-0.016,-0.197l-0.016,-0.196l-0.019,-0.196l-0.019,-0.196l-0.02,-0.195l-0.022,-0.195l-0.023,-0.194l-0.024,-0.194l-0.025,-0.194l-0.027,-0.193l-0.027,-0.193l-0.029,-0.192l-0.03,-0.192l-0.031,-0.192l-0.033,-0.191l-0.033,-0.191l-0.035,-0.19l-0.036,-0.19l-0.037,-0.19l-0.038,-0.188l-0.039,-0.189l-0.04,-0.189l-0.042,-0.187l-0.042,-0.188l-0.044,-0.187l-0.045,-0.186l-0.046,-0.186l-0.048,-0.186l-0.048,-0.185l-0.049,-0.185l-0.051,-0.184l-0.051,-0.184l-0.053,-0.183l-0.054,-0.183l-0.055,-0.182l-0.056,-0.183l-0.057,-0.181l-0.058,-0.181l-0.06,-0.18l-0.06,-0.18l-0.061,-0.18l-0.063,-0.179l-0.063,-0.178l-0.065,-0.178l-0.066,-0.178l-0.066,-0.177l-0.068,-0.176l-0.069,-0.176l-0.07,-0.176l-0.071,-0.175l-0.072,-0.174l-0.073,-0.174l-0.074,-0.173l-0.075,-0.173l-0.076,-0.173l-0.077,-0.171l-0.078,-0.171l-0.079,-0.171l-0.08,-0.171l-0.081,-0.169l-0.082,-0.169l-0.083,-0.168l-0.085,-0.168l-0.085,-0.168l-0.086,-0.166l-0.087,-0.166l-0.088,-0.166l-0.089,-0.165l-0.09,-0.164l-0.091,-0.164l-0.092,-0.163l-0.093,-0.163l-0.093,-0.162l-0.095,-0.161l-0.096,-0.161l-0.097,-0.16l-0.097,-0.159l-0.099,-0.159l-0.099,-0.158l-0.101,-0.158l-0.101,-0.157l-0.102,-0.156l-0.103,-0.156l-0.105,-0.155l-0.105,-0.155l-0.105,-0.153l-0.107,-0.153l-0.108,-0.152l-0.109,-0.152l-0.109,-0.152l-0.111,-0.15l-0.111,-0.149l-0.112,-0.149l-0.113,-0.149l-0.114,-0.148l-0.114,-0.146l-0.116,-0.146l-0.117,-0.146l-0.117,-0.145l-0.118,-0.144l-0.119,-0.143l-0.12,-0.143l-0.121,-0.142l-0.121,-0.141l-0.123,-0.14l-0.123,-0.14l-0.124,-0.139l-0.125,-0.138l-0.126,-0.138l-0.126,-0.137l-0.128,-0.135l-0.128,-0.135l-0.128,-0.135l-0.13,-0.134l-0.131,-0.133l-0.131,-0.132l-0.132,-0.131l-0.133,-0.13l-0.134,-0.13l-0.134,-0.129l-0.135,-0.128l-0.136,-0.127l-0.137,-0.127l-0.138,-0.126l-0.138,-0.125l-0.139,-0.123l-0.139,-0.124l-0.141,-0.122l-0.141,-0.122l-0.142,-0.12l-0.142,-0.12l-0.144,-0.12l-0.144,-0.118l-0.144,-0.117l-0.146,-0.116l-0.146,-0.116l-0.148,-0.115l-0.147,-0.114l-0.148,-0.112l-0.149,-0.113l-0.15,-0.111l-0.15,-0.11l-0.151,-0.11l-0.152,-0.109l-0.152,-0.107l-0.153,-0.107l-0.154,-0.106l-0.155,-0.105l-0.154,-0.104l-0.156,-0.104l-0.157,-0.102l-0.156,-0.101l-0.158,-0.101l-0.158,-0.099l-0.159,-0.098l-0.16,-0.098l-0.16,-0.097l-0.161,-0.095l-0.161,-0.095l-0.162,-0.094l-0.163,-0.093l-0.163,-0.092l-0.163,-0.091l-0.165,-0.09l-0.165,-0.089l-0.166,-0.088l-0.165,-0.087l-0.167,-0.086l-0.167,-0.085l-0.169,-0.084l-0.168,-0.083l-0.169,-0.082l-0.169,-0.082l-0.17,-0.079l-0.171,-0.08l-0.172,-0.078l-0.171,-0.077l-0.172,-0.076l-0.174,-0.075l-0.173,-0.074l-0.173,-0.073l-0.175,-0.072l-0.175,-0.071l-0.175,-0.07l-0.176,-0.069l-0.176,-0.067l-0.178,-0.067l-0.178,-0.066l-0.177,-0.064l-0.178,-0.064l-0.18,-0.062l-0.18,-0.062l-0.179,-0.06l-0.18,-0.059l-0.182,-0.059l-0.181,-0.057l-0.182,-0.056l-0.183,-0.055l-0.182,-0.053l-0.184,-0.053l-0.184,-0.052l-0.184,-0.05l-0.185,-0.05l-0.185,-0.048l-0.185,-0.047l-0.187,-0.046l-0.186,-0.045l-0.187,-0.044l-0.187,-0.043l-0.188,-0.041l-0.188,-0.041l-0.189,-0.039l-0.189,-0.038l-0.189,-0.037l-0.191,-0.036l-0.19,-0.035l-0.191,-0.033l-0.191,-0.032l-0.191,-0.032l-0.193,-0.03l-0.192,-0.028l-0.193,-0.028l-0.193,-0.027l-0.193,-0.025l-0.195,-0.024l-0.194,-0.023l-0.195,-0.021l-0.195,-0.021l-0.195,-0.019l-0.197,-0.018l-0.196,-0.017l-0.196,-0.016l-0.198,-0.014l-0.198,-0.013l-0.197,-0.012l-0.198,-0.011l-0.199,-0.009l-0.198,-0.008l-0.199,-0.007l-0.201,-0.006l-0.2,-0.005l-0.199,-0.003l-0.201,-0.002l-0.201,0l-0.202,0Z" style="fill:#fcecdd;"/><circle cx="72.395" cy="269.6" r="36.5" style="fill:#63e897;"/><path d="M72.63,233.1l0.236,0.003l0.235,0.003l0.235,0.006l0.235,0.006l0.234,0.009l0.233,0.009l0.234,0.011l0.233,0.013l0.232,0.014l0.232,0.015l0.232,0.017l0.232,0.019l0.231,0.019l0.23,0.022l0.23,0.022l0.23,0.024l0.229,0.026l0.229,0.027l0.229,0.028l0.228,0.03l0.227,0.031l0.227,0.033l0.227,0.034l0.226,0.035l0.226,0.037l0.225,0.038l0.225,0.039l0.225,0.041l0.223,0.042l0.224,0.044l0.223,0.045l0.222,0.046l0.222,0.048l0.222,0.049l0.22,0.05l0.221,0.052l0.22,0.053l0.219,0.054l0.219,0.056l0.218,0.057l0.218,0.058l0.217,0.059l0.217,0.061l0.216,0.063l0.216,0.063l0.215,0.065l0.215,0.066l0.214,0.067l0.213,0.069l0.213,0.07l0.212,0.071l0.212,0.072l0.211,0.074l0.21,0.075l0.21,0.076l0.209,0.077l0.209,0.079l0.208,0.08l0.208,0.081l0.207,0.083l0.206,0.083l0.205,0.085l0.205,0.086l0.205,0.087l0.203,0.089l0.203,0.089l0.203,0.091l0.202,0.092l0.201,0.093l0.2,0.095l0.2,0.095l0.199,0.097l0.199,0.098l0.197,0.099l0.197,0.1l0.197,0.102l0.195,0.102l0.195,0.104l0.195,0.105l0.193,0.106l0.193,0.107l0.192,0.108l0.192,0.109l0.19,0.111l0.19,0.112l0.19,0.112l0.188,0.114l0.188,0.115l0.187,0.116l0.186,0.117l0.186,0.118l0.185,0.12l0.184,0.12l0.183,0.121l0.182,0.123l0.182,0.123l0.181,0.125l0.18,0.126l0.179,0.127l0.179,0.127l0.177,0.129l0.177,0.13l0.176,0.131l0.176,0.132l0.174,0.133l0.174,0.134l0.173,0.135l0.171,0.136l0.172,0.137l0.17,0.138l0.169,0.139l0.169,0.14l0.168,0.141l0.167,0.142l0.166,0.143l0.165,0.144l0.164,0.145l0.163,0.146l0.163,0.146l0.162,0.148l0.16,0.149l0.16,0.15l0.159,0.15l0.158,0.152l0.157,0.153l0.157,0.153l0.155,0.154l0.154,0.156l0.154,0.156l0.152,0.157l0.152,0.158l0.151,0.159l0.149,0.16l0.149,0.161l0.148,0.161l0.147,0.163l0.146,0.163l0.144,0.165l0.144,0.165l0.143,0.166l0.142,0.167l0.141,0.167l0.14,0.169l0.139,0.169l0.138,0.171l0.137,0.171l0.136,0.172l0.135,0.173l0.134,0.173l0.133,0.175l0.132,0.175l0.131,0.176l0.13,0.177l0.129,0.178l0.128,0.178l0.127,0.18l0.125,0.18l0.125,0.18l0.123,0.182l0.123,0.183l0.121,0.183l0.121,0.184l0.119,0.185l0.118,0.185l0.117,0.186l0.116,0.187l0.115,0.188l0.114,0.189l0.113,0.189l0.111,0.19l0.111,0.191l0.109,0.191l0.108,0.192l0.108,0.193l0.106,0.194l0.104,0.194l0.104,0.195l0.103,0.196l0.101,0.196l0.1,0.197l0.099,0.198l0.098,0.198l0.097,0.199l0.096,0.2l0.094,0.201l0.093,0.201l0.092,0.201l0.091,0.203l0.09,0.203l0.088,0.204l0.087,0.204l0.086,0.205l0.085,0.206l0.084,0.206l0.082,0.207l0.081,0.207l0.08,0.208l0.079,0.209l0.077,0.209l0.076,0.21l0.075,0.211l0.074,0.211l0.072,0.211l0.072,0.213l0.07,0.212l0.068,0.214l0.067,0.214l0.067,0.214l0.064,0.215l0.064,0.216l0.062,0.216l0.061,0.217l0.059,0.217l0.059,0.218l0.057,0.218l0.055,0.219l0.055,0.22l0.053,0.219l0.051,0.221l0.051,0.221l0.049,0.221l0.047,0.222l0.046,0.223l0.045,0.222l0.044,0.224l0.042,0.224l0.041,0.224l0.04,0.225l0.038,0.225l0.036,0.226l0.036,0.226l0.034,0.227l0.032,0.227l0.031,0.228l0.03,0.228l0.028,0.228l0.027,0.229l0.026,0.229l0.024,0.23l0.023,0.23l0.021,0.231l0.02,0.231l0.018,0.231l0.017,0.232l0.015,0.232l0.015,0.233l0.012,0.233l0.011,0.233l0.01,0.234l0.008,0.234l0.007,0.234l0.005,0.235l0.004,0.235l0.002,0.236l0.001,0.236l-0.001,0.236l-0.002,0.235l-0.004,0.235l-0.005,0.235l-0.007,0.235l-0.008,0.234l-0.01,0.233l-0.011,0.234l-0.012,0.233l-0.015,0.232l-0.015,0.233l-0.017,0.231l-0.018,0.232l-0.02,0.231l-0.021,0.23l-0.023,0.23l-0.024,0.23l-0.026,0.229l-0.027,0.229l-0.028,0.229l-0.03,0.228l-0.031,0.227l-0.032,0.228l-0.034,0.226l-0.036,0.226l-0.036,0.226l-0.038,0.225l-0.04,0.225l-0.041,0.225l-0.042,0.224l-0.044,0.223l-0.045,0.223l-0.046,0.222l-0.047,0.222l-0.049,0.222l-0.051,0.221l-0.051,0.22l-0.053,0.22l-0.055,0.219l-0.055,0.219l-0.057,0.218l-0.059,0.218l-0.059,0.218l-0.061,0.216l-0.062,0.216l-0.064,0.216l-0.064,0.215l-0.067,0.215l-0.067,0.214l-0.068,0.213l-0.07,0.213l-0.072,0.212l-0.072,0.212l-0.074,0.211l-0.075,0.21l-0.076,0.21l-0.077,0.21l-0.079,0.208l-0.08,0.208l-0.081,0.208l-0.082,0.207l-0.084,0.206l-0.085,0.205l-0.086,0.205l-0.087,0.205l-0.088,0.204l-0.09,0.203l-0.091,0.202l-0.092,0.202l-0.093,0.201l-0.094,0.2l-0.096,0.2l-0.097,0.199l-0.098,0.199l-0.099,0.197l-0.1,0.197l-0.101,0.197l-0.103,0.196l-0.104,0.195l-0.104,0.194l-0.106,0.193l-0.108,0.193l-0.108,0.192l-0.109,0.192l-0.111,0.191l-0.111,0.19l-0.113,0.189l-0.114,0.188l-0.115,0.188l-0.116,0.187l-0.117,0.186l-0.118,0.186l-0.119,0.185l-0.121,0.184l-0.121,0.183l-0.123,0.182l-0.123,0.182l-0.125,0.181l-0.125,0.18l-0.127,0.179l-0.128,0.179l-0.129,0.177l-0.13,0.177l-0.131,0.176l-0.132,0.176l-0.133,0.174l-0.134,0.174l-0.135,0.173l-0.136,0.172l-0.137,0.171l-0.138,0.17l-0.139,0.17l-0.14,0.168l-0.141,0.168l-0.142,0.167l-0.143,0.166l-0.144,0.165l-0.144,0.164l-0.146,0.164l-0.147,0.162l-0.148,0.162l-0.149,0.161l-0.149,0.159l-0.151,0.159l-0.152,0.158l-0.152,0.158l-0.154,0.156l-0.154,0.155l-0.155,0.154l-0.157,0.154l-0.157,0.152l-0.158,0.152l-0.159,0.151l-0.16,0.149l-0.16,0.149l-0.162,0.148l-0.163,0.147l-0.163,0.146l-0.164,0.145l-0.165,0.144l-0.166,0.143l-0.167,0.142l-0.168,0.141l-0.169,0.14l-0.169,0.139l-0.17,0.138l-0.172,0.137l-0.171,0.136l-0.173,0.135l-0.174,0.134l-0.174,0.133l-0.176,0.131l-0.176,0.131l-0.177,0.13l-0.177,0.129l-0.179,0.128l-0.179,0.127l-0.18,0.125l-0.181,0.125l-0.182,0.124l-0.182,0.122l-0.183,0.121l-0.184,0.121l-0.185,0.119l-0.186,0.118l-0.186,0.117l-0.187,0.116l-0.188,0.115l-0.188,0.114l-0.19,0.113l-0.19,0.111l-0.19,0.111l-0.192,0.109l-0.192,0.109l-0.193,0.107l-0.193,0.106l-0.195,0.104l-0.195,0.104l-0.195,0.103l-0.197,0.101l-0.197,0.1l-0.197,0.099l-0.199,0.098l-0.199,0.097l-0.2,0.096l-0.2,0.094l-0.201,0.093l-0.202,0.092l-0.203,0.091l-0.203,0.09l-0.203,0.088l-0.205,0.087l-0.205,0.086l-0.205,0.085l-0.206,0.084l-0.207,0.082l-0.208,0.081l-0.208,0.08l-0.209,0.079l-0.209,0.077l-0.21,0.077l-0.21,0.075l-0.211,0.073l-0.212,0.073l-0.212,0.071l-0.213,0.07l-0.213,0.068l-0.214,0.068l-0.215,0.066l-0.215,0.064l-0.216,0.064l-0.216,0.062l-0.217,0.061l-0.217,0.06l-0.218,0.058l-0.218,0.057l-0.219,0.055l-0.219,0.055l-0.22,0.053l-0.221,0.051l-0.22,0.051l-0.222,0.049l-0.222,0.047l-0.222,0.047l-0.223,0.045l-0.224,0.043l-0.223,0.042l-0.225,0.041l-0.225,0.04l-0.225,0.038l-0.226,0.037l-0.226,0.035l-0.227,0.034l-0.227,0.032l-0.227,0.031l-0.228,0.03l-0.229,0.029l-0.229,0.027l-0.229,0.025l-0.23,0.024l-0.23,0.023l-0.23,0.021l-0.231,0.02l-0.232,0.018l-0.232,0.017l-0.232,0.016l-0.232,0.014l-0.233,0.012l-0.234,0.011l-0.233,0.01l-0.234,0.008l-0.235,0.007l-0.235,0.005l-0.235,0.004l-0.236,0.002l-0.235,0.001l-0.236,-0.001l-0.236,-0.002l-0.235,-0.004l-0.235,-0.005l-0.234,-0.007l-0.234,-0.008l-0.234,-0.01l-0.233,-0.011l-0.233,-0.012l-0.233,-0.014l-0.232,-0.016l-0.232,-0.017l-0.231,-0.018l-0.231,-0.02l-0.231,-0.021l-0.23,-0.023l-0.23,-0.024l-0.229,-0.025l-0.229,-0.027l-0.228,-0.029l-0.228,-0.03l-0.228,-0.031l-0.227,-0.032l-0.227,-0.034l-0.226,-0.035l-0.226,-0.037l-0.225,-0.038l-0.225,-0.04l-0.224,-0.041l-0.224,-0.042l-0.224,-0.043l-0.223,-0.045l-0.222,-0.047l-0.222,-0.047l-0.221,-0.049l-0.221,-0.051l-0.221,-0.051l-0.22,-0.053l-0.219,-0.055l-0.219,-0.055l-0.218,-0.057l-0.218,-0.058l-0.217,-0.06l-0.217,-0.061l-0.216,-0.062l-0.216,-0.064l-0.215,-0.064l-0.214,-0.066l-0.214,-0.068l-0.214,-0.068l-0.213,-0.07l-0.212,-0.071l-0.211,-0.073l-0.212,-0.073l-0.21,-0.075l-0.21,-0.077l-0.209,-0.077l-0.209,-0.079l-0.208,-0.08l-0.207,-0.081l-0.207,-0.082l-0.207,-0.084l-0.205,-0.085l-0.205,-0.086l-0.205,-0.087l-0.203,-0.088l-0.203,-0.09l-0.203,-0.091l-0.201,-0.092l-0.202,-0.093l-0.2,-0.094l-0.2,-0.096l-0.199,-0.097l-0.198,-0.098l-0.198,-0.099l-0.197,-0.1l-0.197,-0.101l-0.195,-0.103l-0.195,-0.104l-0.194,-0.104l-0.194,-0.106l-0.193,-0.107l-0.192,-0.109l-0.192,-0.109l-0.19,-0.111l-0.19,-0.111l-0.189,-0.113l-0.189,-0.114l-0.188,-0.115l-0.187,-0.116l-0.186,-0.117l-0.186,-0.118l-0.184,-0.119l-0.184,-0.121l-0.184,-0.121l-0.182,-0.122l-0.182,-0.124l-0.181,-0.125l-0.18,-0.125l-0.179,-0.127l-0.178,-0.128l-0.178,-0.129l-0.177,-0.13l-0.176,-0.131l-0.175,-0.131l-0.175,-0.133l-0.174,-0.134l-0.172,-0.135l-0.172,-0.136l-0.171,-0.137l-0.171,-0.138l-0.169,-0.139l-0.169,-0.14l-0.168,-0.141l-0.166,-0.142l-0.166,-0.143l-0.166,-0.144l-0.164,-0.145l-0.163,-0.146l-0.163,-0.147l-0.161,-0.148l-0.161,-0.149l-0.16,-0.149l-0.159,-0.151l-0.158,-0.152l-0.157,-0.152l-0.156,-0.154l-0.156,-0.154l-0.154,-0.155l-0.154,-0.156l-0.152,-0.158l-0.152,-0.158l-0.15,-0.159l-0.15,-0.159l-0.149,-0.161l-0.148,-0.162l-0.146,-0.162l-0.146,-0.164l-0.145,-0.164l-0.144,-0.165l-0.143,-0.166l-0.142,-0.167l-0.141,-0.168l-0.14,-0.168l-0.139,-0.17l-0.138,-0.17l-0.137,-0.171l-0.136,-0.172l-0.135,-0.173l-0.134,-0.174l-0.133,-0.174l-0.132,-0.176l-0.131,-0.176l-0.13,-0.177l-0.129,-0.177l-0.128,-0.179l-0.126,-0.179l-0.126,-0.18l-0.125,-0.181l-0.123,-0.182l-0.123,-0.182l-0.121,-0.183l-0.121,-0.184l-0.119,-0.185l-0.118,-0.186l-0.117,-0.186l-0.116,-0.187l-0.115,-0.188l-0.114,-0.188l-0.113,-0.189l-0.111,-0.19l-0.111,-0.191l-0.109,-0.192l-0.108,-0.192l-0.107,-0.193l-0.106,-0.193l-0.105,-0.194l-0.104,-0.195l-0.102,-0.196l-0.102,-0.197l-0.1,-0.197l-0.099,-0.197l-0.098,-0.199l-0.097,-0.199l-0.095,-0.2l-0.095,-0.2l-0.093,-0.201l-0.092,-0.202l-0.091,-0.202l-0.089,-0.203l-0.089,-0.204l-0.087,-0.205l-0.086,-0.205l-0.085,-0.205l-0.084,-0.206l-0.082,-0.207l-0.081,-0.208l-0.08,-0.208l-0.079,-0.208l-0.077,-0.21l-0.076,-0.21l-0.075,-0.21l-0.074,-0.211l-0.072,-0.212l-0.071,-0.212l-0.07,-0.213l-0.069,-0.213l-0.067,-0.214l-0.066,-0.215l-0.065,-0.215l-0.064,-0.216l-0.062,-0.216l-0.061,-0.216l-0.059,-0.218l-0.058,-0.218l-0.057,-0.218l-0.056,-0.219l-0.054,-0.219l-0.053,-0.22l-0.052,-0.22l-0.05,-0.221l-0.049,-0.222l-0.048,-0.222l-0.046,-0.222l-0.045,-0.223l-0.044,-0.223l-0.042,-0.224l-0.041,-0.225l-0.039,-0.225l-0.038,-0.225l-0.037,-0.226l-0.036,-0.226l-0.033,-0.226l-0.033,-0.228l-0.031,-0.227l-0.03,-0.228l-0.028,-0.229l-0.027,-0.229l-0.026,-0.229l-0.024,-0.23l-0.022,-0.23l-0.022,-0.23l-0.02,-0.231l-0.018,-0.232l-0.017,-0.231l-0.015,-0.233l-0.014,-0.232l-0.013,-0.233l-0.011,-0.234l-0.01,-0.233l-0.008,-0.234l-0.006,-0.235l-0.006,-0.235l-0.003,-0.235l-0.003,-0.235l0,-0.236l0,-0.236l0.003,-0.236l0.003,-0.235l0.006,-0.235l0.006,-0.234l0.008,-0.234l0.01,-0.234l0.011,-0.233l0.013,-0.233l0.014,-0.233l0.015,-0.232l0.017,-0.232l0.018,-0.231l0.02,-0.231l0.022,-0.231l0.022,-0.23l0.024,-0.23l0.026,-0.229l0.027,-0.229l0.028,-0.228l0.03,-0.228l0.031,-0.228l0.033,-0.227l0.033,-0.227l0.036,-0.226l0.037,-0.226l0.038,-0.225l0.039,-0.225l0.041,-0.224l0.042,-0.224l0.044,-0.224l0.045,-0.222l0.046,-0.223l0.048,-0.222l0.049,-0.221l0.05,-0.221l0.052,-0.221l0.053,-0.219l0.054,-0.22l0.056,-0.219l0.057,-0.218l0.058,-0.218l0.059,-0.217l0.061,-0.217l0.062,-0.216l0.064,-0.216l0.065,-0.215l0.066,-0.214l0.067,-0.214l0.069,-0.214l0.07,-0.212l0.071,-0.213l0.072,-0.211l0.074,-0.211l0.075,-0.211l0.076,-0.21l0.077,-0.209l0.079,-0.209l0.08,-0.208l0.081,-0.207l0.082,-0.207l0.084,-0.206l0.085,-0.206l0.086,-0.205l0.087,-0.204l0.089,-0.204l0.089,-0.203l0.091,-0.203l0.092,-0.201l0.093,-0.201l0.095,-0.201l0.095,-0.2l0.097,-0.199l0.098,-0.198l0.099,-0.198l0.1,-0.197l0.102,-0.196l0.102,-0.196l0.104,-0.195l0.105,-0.194l0.106,-0.194l0.107,-0.193l0.108,-0.192l0.109,-0.191l0.111,-0.191l0.111,-0.19l0.113,-0.189l0.114,-0.189l0.115,-0.188l0.116,-0.187l0.117,-0.186l0.118,-0.185l0.119,-0.185l0.121,-0.184l0.121,-0.183l0.123,-0.183l0.123,-0.182l0.125,-0.18l0.126,-0.18l0.126,-0.18l0.128,-0.178l0.129,-0.178l0.13,-0.177l0.131,-0.176l0.132,-0.175l0.133,-0.175l0.134,-0.173l0.135,-0.173l0.136,-0.172l0.137,-0.171l0.138,-0.171l0.139,-0.169l0.14,-0.169l0.141,-0.167l0.142,-0.167l0.143,-0.166l0.144,-0.165l0.145,-0.165l0.146,-0.163l0.146,-0.163l0.148,-0.161l0.149,-0.161l0.15,-0.16l0.15,-0.159l0.152,-0.158l0.152,-0.157l0.154,-0.156l0.154,-0.156l0.156,-0.154l0.156,-0.153l0.157,-0.153l0.158,-0.152l0.159,-0.15l0.16,-0.15l0.161,-0.149l0.161,-0.148l0.163,-0.146l0.163,-0.146l0.164,-0.145l0.166,-0.144l0.166,-0.143l0.166,-0.142l0.168,-0.141l0.169,-0.14l0.169,-0.139l0.171,-0.138l0.171,-0.137l0.172,-0.136l0.172,-0.135l0.174,-0.134l0.175,-0.133l0.175,-0.132l0.176,-0.131l0.177,-0.13l0.178,-0.129l0.178,-0.127l0.179,-0.127l0.18,-0.126l0.181,-0.125l0.182,-0.123l0.182,-0.123l0.184,-0.121l0.184,-0.12l0.184,-0.12l0.186,-0.118l0.186,-0.117l0.187,-0.116l0.188,-0.115l0.189,-0.114l0.189,-0.112l0.19,-0.112l0.19,-0.111l0.192,-0.109l0.192,-0.108l0.193,-0.107l0.194,-0.106l0.194,-0.105l0.195,-0.104l0.195,-0.102l0.197,-0.102l0.197,-0.1l0.198,-0.099l0.198,-0.098l0.199,-0.097l0.2,-0.095l0.2,-0.095l0.202,-0.093l0.201,-0.092l0.203,-0.091l0.203,-0.089l0.203,-0.089l0.205,-0.087l0.205,-0.086l0.205,-0.085l0.207,-0.083l0.207,-0.083l0.207,-0.081l0.208,-0.08l0.209,-0.079l0.209,-0.077l0.21,-0.076l0.21,-0.075l0.212,-0.074l0.211,-0.072l0.212,-0.071l0.213,-0.07l0.214,-0.069l0.214,-0.067l0.214,-0.066l0.215,-0.065l0.216,-0.063l0.216,-0.063l0.217,-0.061l0.217,-0.059l0.218,-0.058l0.218,-0.057l0.219,-0.056l0.219,-0.054l0.22,-0.053l0.221,-0.052l0.221,-0.05l0.221,-0.049l0.222,-0.048l0.222,-0.046l0.223,-0.045l0.224,-0.044l0.224,-0.042l0.224,-0.041l0.225,-0.039l0.225,-0.038l0.226,-0.037l0.226,-0.035l0.227,-0.034l0.227,-0.033l0.228,-0.031l0.228,-0.03l0.228,-0.028l0.229,-0.027l0.229,-0.026l0.23,-0.024l0.23,-0.022l0.231,-0.022l0.231,-0.019l0.231,-0.019l0.232,-0.017l0.232,-0.015l0.233,-0.014l0.233,-0.013l0.233,-0.011l0.234,-0.009l0.234,-0.009l0.234,-0.006l0.235,-0.006l0.235,-0.003l0.236,-0.003l0.236,0l0.235,0Zm-0.437,5.5l-0.2,0.002l-0.2,0.003l-0.201,0.005l-0.199,0.006l-0.199,0.007l-0.2,0.008l-0.198,0.009l-0.197,0.011l-0.199,0.012l-0.197,0.013l-0.197,0.014l-0.197,0.016l-0.197,0.017l-0.195,0.018l-0.196,0.019l-0.195,0.021l-0.194,0.021l-0.195,0.023l-0.194,0.024l-0.194,0.026l-0.193,0.026l-0.193,0.028l-0.193,0.028l-0.191,0.03l-0.192,0.032l-0.191,0.032l-0.19,0.033l-0.191,0.035l-0.19,0.036l-0.19,0.037l-0.189,0.038l-0.188,0.039l-0.189,0.041l-0.188,0.041l-0.187,0.043l-0.187,0.044l-0.186,0.045l-0.187,0.046l-0.185,0.047l-0.185,0.048l-0.185,0.05l-0.184,0.05l-0.185,0.052l-0.183,0.053l-0.182,0.053l-0.183,0.055l-0.181,0.056l-0.182,0.057l-0.181,0.058l-0.18,0.06l-0.181,0.06l-0.179,0.062l-0.179,0.062l-0.178,0.064l-0.179,0.064l-0.177,0.066l-0.177,0.067l-0.177,0.068l-0.176,0.068l-0.175,0.07l-0.175,0.071l-0.174,0.072l-0.174,0.073l-0.174,0.074l-0.172,0.075l-0.173,0.076l-0.172,0.077l-0.171,0.078l-0.171,0.079l-0.17,0.08l-0.169,0.081l-0.169,0.082l-0.169,0.084l-0.167,0.084l-0.167,0.085l-0.167,0.086l-0.167,0.087l-0.165,0.088l-0.165,0.089l-0.164,0.09l-0.164,0.091l-0.163,0.092l-0.163,0.093l-0.162,0.094l-0.161,0.095l-0.161,0.095l-0.16,0.097l-0.16,0.098l-0.158,0.098l-0.158,0.099l-0.158,0.101l-0.157,0.101l-0.157,0.103l-0.155,0.103l-0.155,0.104l-0.155,0.105l-0.153,0.106l-0.153,0.106l-0.153,0.108l-0.152,0.109l-0.151,0.11l-0.15,0.11l-0.149,0.111l-0.15,0.112l-0.148,0.113l-0.148,0.114l-0.146,0.115l-0.147,0.116l-0.145,0.116l-0.145,0.117l-0.144,0.119l-0.143,0.118l-0.143,0.121l-0.142,0.121l-0.141,0.121l-0.141,0.122l-0.139,0.124l-0.139,0.123l-0.138,0.125l-0.138,0.126l-0.137,0.127l-0.135,0.127l-0.135,0.128l-0.135,0.129l-0.134,0.13l-0.132,0.13l-0.132,0.131l-0.132,0.132l-0.131,0.134l-0.129,0.133l-0.129,0.134l-0.128,0.135l-0.128,0.137l-0.126,0.137l-0.126,0.137l-0.125,0.138l-0.124,0.139l-0.123,0.139l-0.122,0.141l-0.122,0.141l-0.121,0.142l-0.119,0.143l-0.119,0.143l-0.119,0.144l-0.117,0.145l-0.117,0.146l-0.115,0.146l-0.115,0.146l-0.114,0.148l-0.113,0.149l-0.112,0.149l-0.111,0.149l-0.111,0.15l-0.109,0.152l-0.109,0.151l-0.107,0.153l-0.108,0.153l-0.105,0.153l-0.105,0.155l-0.104,0.155l-0.104,0.156l-0.102,0.156l-0.101,0.157l-0.1,0.157l-0.1,0.159l-0.099,0.159l-0.097,0.159l-0.097,0.16l-0.096,0.161l-0.094,0.161l-0.094,0.163l-0.093,0.162l-0.092,0.163l-0.091,0.164l-0.09,0.164l-0.089,0.165l-0.088,0.165l-0.087,0.167l-0.086,0.166l-0.085,0.168l-0.084,0.168l-0.083,0.168l-0.083,0.169l-0.081,0.17l-0.08,0.17l-0.079,0.17l-0.078,0.172l-0.077,0.171l-0.076,0.172l-0.075,0.174l-0.074,0.173l-0.073,0.174l-0.072,0.174l-0.071,0.175l-0.07,0.175l-0.069,0.177l-0.067,0.176l-0.067,0.177l-0.066,0.177l-0.064,0.179l-0.064,0.178l-0.062,0.179l-0.062,0.18l-0.06,0.18l-0.06,0.18l-0.058,0.181l-0.057,0.181l-0.056,0.183l-0.055,0.182l-0.054,0.183l-0.052,0.183l-0.052,0.184l-0.05,0.184l-0.05,0.185l-0.048,0.185l-0.047,0.186l-0.046,0.186l-0.045,0.186l-0.044,0.187l-0.043,0.187l-0.041,0.188l-0.041,0.189l-0.039,0.188l-0.038,0.19l-0.037,0.189l-0.036,0.19l-0.035,0.19l-0.033,0.191l-0.033,0.191l-0.031,0.192l-0.03,0.192l-0.029,0.192l-0.027,0.193l-0.027,0.193l-0.025,0.194l-0.024,0.194l-0.023,0.194l-0.022,0.195l-0.02,0.195l-0.019,0.196l-0.018,0.196l-0.017,0.196l-0.016,0.197l-0.014,0.197l-0.013,0.197l-0.012,0.198l-0.011,0.198l-0.009,0.199l-0.009,0.199l-0.007,0.199l-0.005,0.2l-0.005,0.2l-0.003,0.2l-0.002,0.201l0,0.201l0,0.201l0.002,0.2l0.003,0.201l0.005,0.2l0.005,0.199l0.007,0.199l0.009,0.2l0.009,0.198l0.011,0.198l0.012,0.198l0.013,0.197l0.014,0.197l0.016,0.197l0.017,0.197l0.018,0.195l0.019,0.196l0.02,0.195l0.022,0.195l0.023,0.195l0.024,0.193l0.025,0.194l0.027,0.193l0.027,0.193l0.029,0.192l0.03,0.192l0.031,0.192l0.033,0.192l0.033,0.19l0.035,0.191l0.036,0.189l0.037,0.19l0.038,0.189l0.039,0.189l0.041,0.188l0.041,0.188l0.043,0.187l0.044,0.187l0.045,0.187l0.046,0.186l0.047,0.185l0.048,0.185l0.05,0.186l0.05,0.184l0.052,0.183l0.052,0.184l0.054,0.182l0.055,0.183l0.056,0.182l0.057,0.182l0.058,0.18l0.06,0.18l0.06,0.181l0.061,0.179l0.063,0.179l0.064,0.179l0.064,0.178l0.066,0.177l0.067,0.177l0.067,0.177l0.069,0.176l0.07,0.175l0.071,0.175l0.072,0.175l0.073,0.173l0.074,0.174l0.075,0.173l0.076,0.172l0.077,0.172l0.078,0.171l0.079,0.171l0.08,0.17l0.081,0.169l0.083,0.17l0.083,0.168l0.084,0.168l0.085,0.167l0.086,0.166l0.087,0.167l0.088,0.165l0.089,0.165l0.09,0.165l0.091,0.164l0.092,0.163l0.093,0.162l0.094,0.162l0.094,0.162l0.096,0.16l0.097,0.161l0.097,0.159l0.099,0.159l0.1,0.158l0.1,0.157l0.101,0.157l0.102,0.157l0.104,0.156l0.104,0.155l0.105,0.154l0.106,0.154l0.107,0.153l0.107,0.152l0.109,0.152l0.109,0.151l0.111,0.15l0.111,0.15l0.112,0.149l0.113,0.148l0.114,0.148l0.115,0.147l0.115,0.146l0.117,0.146l0.117,0.144l0.118,0.144l0.12,0.144l0.12,0.143l0.12,0.141l0.122,0.141l0.122,0.141l0.123,0.14l0.124,0.138l0.125,0.139l0.126,0.137l0.126,0.137l0.128,0.136l0.128,0.135l0.129,0.135l0.129,0.133l0.131,0.133l0.132,0.132l0.131,0.131l0.133,0.131l0.134,0.13l0.135,0.129l0.135,0.128l0.135,0.127l0.137,0.126l0.138,0.126l0.138,0.125l0.139,0.124l0.139,0.123l0.141,0.122l0.141,0.122l0.142,0.121l0.143,0.12l0.143,0.119l0.144,0.118l0.145,0.117l0.146,0.117l0.146,0.116l0.146,0.114l0.148,0.114l0.148,0.113l0.149,0.112l0.15,0.112l0.151,0.11l0.15,0.109l0.152,0.109l0.153,0.108l0.153,0.107l0.153,0.106l0.155,0.105l0.155,0.104l0.155,0.103l0.157,0.102l0.157,0.101l0.158,0.101l0.158,0.099l0.158,0.099l0.16,0.098l0.16,0.096l0.161,0.096l0.161,0.095l0.162,0.094l0.162,0.092l0.164,0.092l0.164,0.092l0.164,0.089l0.165,0.089l0.165,0.088l0.167,0.087l0.167,0.087l0.167,0.085l0.167,0.084l0.169,0.083l0.169,0.082l0.169,0.081l0.171,0.08l0.17,0.079l0.171,0.078l0.172,0.077l0.173,0.077l0.172,0.074l0.174,0.075l0.174,0.073l0.174,0.071l0.175,0.071l0.175,0.07l0.176,0.069l0.177,0.068l0.177,0.066l0.177,0.066l0.179,0.065l0.178,0.063l0.179,0.063l0.179,0.061l0.181,0.061l0.18,0.059l0.181,0.058l0.182,0.057l0.181,0.056l0.182,0.055l0.184,0.054l0.183,0.053l0.184,0.051l0.184,0.051l0.184,0.049l0.186,0.048l0.185,0.048l0.187,0.046l0.186,0.045l0.187,0.044l0.188,0.042l0.187,0.042l0.189,0.04l0.188,0.04l0.189,0.038l0.19,0.037l0.19,0.035l0.19,0.035l0.191,0.034l0.191,0.032l0.192,0.031l0.192,0.03l0.192,0.029l0.193,0.028l0.193,0.026l0.194,0.025l0.194,0.024l0.195,0.023l0.194,0.022l0.195,0.02l0.196,0.02l0.195,0.018l0.197,0.016l0.197,0.016l0.197,0.014l0.197,0.014l0.199,0.012l0.197,0.01l0.198,0.01l0.2,0.008l0.199,0.007l0.2,0.006l0.2,0.004l0.2,0.003l0.2,0.002l0.202,0.001l0.201,-0.001l0.2,-0.002l0.2,-0.003l0.2,-0.004l0.2,-0.006l0.2,-0.007l0.199,-0.008l0.198,-0.01l0.198,-0.01l0.198,-0.012l0.197,-0.014l0.197,-0.014l0.197,-0.016l0.197,-0.016l0.195,-0.018l0.196,-0.02l0.195,-0.02l0.195,-0.022l0.194,-0.023l0.194,-0.024l0.194,-0.025l0.193,-0.026l0.193,-0.028l0.192,-0.029l0.193,-0.03l0.191,-0.031l0.191,-0.032l0.191,-0.034l0.191,-0.035l0.19,-0.035l0.189,-0.037l0.189,-0.038l0.189,-0.04l0.188,-0.04l0.187,-0.042l0.188,-0.042l0.187,-0.044l0.186,-0.045l0.187,-0.046l0.185,-0.048l0.186,-0.048l0.184,-0.049l0.184,-0.051l0.184,-0.051l0.183,-0.053l0.184,-0.054l0.182,-0.055l0.182,-0.056l0.181,-0.057l0.181,-0.058l0.181,-0.059l0.18,-0.061l0.179,-0.061l0.179,-0.063l0.178,-0.063l0.179,-0.065l0.177,-0.066l0.177,-0.066l0.177,-0.068l0.176,-0.069l0.175,-0.07l0.176,-0.071l0.173,-0.071l0.174,-0.073l0.174,-0.075l0.172,-0.074l0.173,-0.077l0.172,-0.077l0.171,-0.078l0.17,-0.079l0.171,-0.08l0.169,-0.081l0.169,-0.082l0.169,-0.083l0.168,-0.084l0.167,-0.085l0.167,-0.087l0.166,-0.087l0.165,-0.088l0.165,-0.089l0.164,-0.09l0.164,-0.091l0.164,-0.092l0.162,-0.092l0.162,-0.094l0.161,-0.095l0.161,-0.096l0.16,-0.096l0.16,-0.098l0.158,-0.099l0.159,-0.099l0.158,-0.101l0.156,-0.101l0.157,-0.102l0.156,-0.103l0.154,-0.104l0.155,-0.105l0.154,-0.106l0.152,-0.107l0.153,-0.108l0.152,-0.109l0.15,-0.109l0.151,-0.11l0.15,-0.112l0.149,-0.112l0.148,-0.113l0.148,-0.114l0.147,-0.114l0.146,-0.116l0.145,-0.117l0.145,-0.117l0.144,-0.118l0.143,-0.119l0.143,-0.12l0.142,-0.121l0.142,-0.122l0.14,-0.122l0.139,-0.123l0.139,-0.124l0.138,-0.125l0.138,-0.126l0.137,-0.126l0.136,-0.127l0.135,-0.129l0.134,-0.128l0.134,-0.13l0.133,-0.131l0.131,-0.131l0.132,-0.132l0.131,-0.133l0.129,-0.133l0.129,-0.135l0.128,-0.135l0.128,-0.136l0.127,-0.137l0.125,-0.137l0.125,-0.138l0.124,-0.139l0.123,-0.14l0.123,-0.141l0.121,-0.141l0.121,-0.141l0.119,-0.143l0.12,-0.144l0.118,-0.144l0.117,-0.144l0.117,-0.146l0.115,-0.146l0.115,-0.147l0.114,-0.148l0.113,-0.148l0.112,-0.149l0.112,-0.15l0.11,-0.15l0.109,-0.151l0.109,-0.152l0.108,-0.152l0.106,-0.153l0.106,-0.154l0.106,-0.155l0.104,-0.154l0.103,-0.156l0.102,-0.157l0.101,-0.157l0.101,-0.157l0.099,-0.158l0.099,-0.159l0.097,-0.159l0.097,-0.161l0.096,-0.161l0.095,-0.161l0.093,-0.162l0.093,-0.162l0.092,-0.163l0.091,-0.164l0.09,-0.165l0.089,-0.165l0.088,-0.165l0.087,-0.166l0.086,-0.167l0.085,-0.167l0.085,-0.168l0.083,-0.169l0.082,-0.169l0.081,-0.169l0.08,-0.17l0.079,-0.171l0.078,-0.171l0.077,-0.172l0.076,-0.172l0.075,-0.173l0.074,-0.173l0.073,-0.174l0.072,-0.175l0.071,-0.174l0.07,-0.176l0.069,-0.176l0.068,-0.177l0.066,-0.177l0.066,-0.177l0.065,-0.178l0.063,-0.179l0.063,-0.179l0.061,-0.179l0.06,-0.18l0.06,-0.181l0.058,-0.18l0.057,-0.182l0.056,-0.182l0.055,-0.182l0.054,-0.183l0.053,-0.184l0.051,-0.183l0.051,-0.185l0.049,-0.185l0.048,-0.184l0.048,-0.186l0.046,-0.186l0.045,-0.187l0.043,-0.187l0.043,-0.187l0.042,-0.188l0.04,-0.188l0.039,-0.189l0.039,-0.189l0.036,-0.189l0.036,-0.19l0.035,-0.191l0.033,-0.19l0.033,-0.192l0.031,-0.192l0.03,-0.192l0.029,-0.192l0.027,-0.193l0.027,-0.193l0.025,-0.194l0.024,-0.194l0.023,-0.194l0.022,-0.195l0.02,-0.195l0.019,-0.196l0.019,-0.196l0.016,-0.196l0.016,-0.196l0.014,-0.198l0.014,-0.197l0.011,-0.198l0.011,-0.198l0.01,-0.199l0.008,-0.198l0.007,-0.2l0.005,-0.199l0.005,-0.2l0.003,-0.2l0.002,-0.201l0.001,-0.201l-0.001,-0.201l-0.002,-0.201l-0.003,-0.2l-0.005,-0.2l-0.005,-0.2l-0.007,-0.199l-0.008,-0.199l-0.01,-0.199l-0.011,-0.198l-0.011,-0.197l-0.014,-0.198l-0.014,-0.197l-0.016,-0.197l-0.016,-0.196l-0.019,-0.196l-0.019,-0.196l-0.02,-0.195l-0.022,-0.195l-0.023,-0.194l-0.024,-0.194l-0.025,-0.194l-0.027,-0.193l-0.027,-0.193l-0.029,-0.192l-0.03,-0.192l-0.031,-0.192l-0.033,-0.191l-0.033,-0.191l-0.035,-0.19l-0.036,-0.19l-0.036,-0.189l-0.039,-0.189l-0.039,-0.189l-0.04,-0.189l-0.042,-0.187l-0.043,-0.188l-0.043,-0.187l-0.045,-0.186l-0.046,-0.186l-0.048,-0.186l-0.048,-0.185l-0.049,-0.185l-0.051,-0.184l-0.051,-0.184l-0.053,-0.183l-0.054,-0.183l-0.055,-0.182l-0.056,-0.182l-0.057,-0.182l-0.058,-0.181l-0.06,-0.18l-0.06,-0.18l-0.061,-0.18l-0.063,-0.179l-0.063,-0.178l-0.065,-0.179l-0.066,-0.177l-0.066,-0.177l-0.068,-0.176l-0.069,-0.176l-0.07,-0.176l-0.071,-0.175l-0.072,-0.174l-0.073,-0.174l-0.074,-0.173l-0.075,-0.173l-0.076,-0.173l-0.077,-0.171l-0.078,-0.171l-0.079,-0.171l-0.08,-0.171l-0.081,-0.169l-0.082,-0.169l-0.083,-0.168l-0.085,-0.168l-0.085,-0.168l-0.086,-0.166l-0.087,-0.167l-0.088,-0.165l-0.089,-0.165l-0.09,-0.164l-0.091,-0.164l-0.092,-0.163l-0.093,-0.163l-0.094,-0.162l-0.094,-0.161l-0.096,-0.161l-0.097,-0.16l-0.097,-0.16l-0.099,-0.158l-0.099,-0.158l-0.101,-0.158l-0.101,-0.157l-0.102,-0.157l-0.103,-0.155l-0.105,-0.155l-0.105,-0.155l-0.105,-0.153l-0.107,-0.153l-0.108,-0.152l-0.109,-0.152l-0.109,-0.152l-0.111,-0.15l-0.111,-0.149l-0.112,-0.149l-0.113,-0.149l-0.114,-0.148l-0.114,-0.146l-0.116,-0.146l-0.117,-0.146l-0.117,-0.145l-0.118,-0.144l-0.12,-0.144l-0.119,-0.142l-0.121,-0.141l-0.121,-0.142l-0.123,-0.141l-0.123,-0.139l-0.124,-0.139l-0.125,-0.138l-0.125,-0.137l-0.127,-0.137l-0.128,-0.137l-0.128,-0.135l-0.128,-0.134l-0.13,-0.133l-0.131,-0.134l-0.132,-0.132l-0.131,-0.131l-0.133,-0.13l-0.134,-0.13l-0.134,-0.129l-0.135,-0.128l-0.136,-0.127l-0.137,-0.127l-0.138,-0.126l-0.138,-0.125l-0.139,-0.123l-0.139,-0.124l-0.141,-0.122l-0.141,-0.121l-0.142,-0.121l-0.143,-0.12l-0.143,-0.119l-0.144,-0.119l-0.145,-0.117l-0.145,-0.116l-0.146,-0.116l-0.147,-0.115l-0.148,-0.114l-0.148,-0.113l-0.149,-0.112l-0.15,-0.111l-0.15,-0.11l-0.151,-0.11l-0.152,-0.109l-0.153,-0.108l-0.152,-0.106l-0.154,-0.106l-0.155,-0.105l-0.154,-0.104l-0.156,-0.103l-0.157,-0.103l-0.156,-0.101l-0.158,-0.1l-0.159,-0.1l-0.158,-0.098l-0.16,-0.098l-0.16,-0.097l-0.161,-0.095l-0.161,-0.095l-0.162,-0.094l-0.163,-0.093l-0.163,-0.092l-0.163,-0.091l-0.165,-0.09l-0.165,-0.089l-0.165,-0.088l-0.166,-0.087l-0.167,-0.086l-0.167,-0.085l-0.168,-0.084l-0.169,-0.084l-0.169,-0.082l-0.169,-0.081l-0.17,-0.08l-0.171,-0.079l-0.171,-0.078l-0.172,-0.077l-0.173,-0.076l-0.172,-0.075l-0.174,-0.074l-0.174,-0.073l-0.173,-0.072l-0.176,-0.071l-0.175,-0.07l-0.176,-0.068l-0.177,-0.068l-0.177,-0.067l-0.177,-0.066l-0.179,-0.064l-0.178,-0.064l-0.179,-0.062l-0.179,-0.062l-0.18,-0.06l-0.181,-0.06l-0.181,-0.058l-0.181,-0.057l-0.182,-0.056l-0.183,-0.055l-0.182,-0.053l-0.183,-0.053l-0.185,-0.052l-0.184,-0.05l-0.185,-0.05l-0.185,-0.048l-0.185,-0.047l-0.187,-0.046l-0.186,-0.045l-0.187,-0.044l-0.187,-0.043l-0.188,-0.041l-0.188,-0.041l-0.189,-0.039l-0.189,-0.038l-0.189,-0.037l-0.19,-0.036l-0.191,-0.035l-0.191,-0.033l-0.191,-0.032l-0.191,-0.032l-0.192,-0.03l-0.193,-0.028l-0.193,-0.028l-0.193,-0.026l-0.194,-0.026l-0.194,-0.024l-0.194,-0.023l-0.195,-0.021l-0.195,-0.021l-0.196,-0.019l-0.195,-0.018l-0.197,-0.017l-0.197,-0.016l-0.197,-0.014l-0.197,-0.013l-0.198,-0.012l-0.198,-0.011l-0.198,-0.009l-0.2,-0.008l-0.199,-0.007l-0.199,-0.006l-0.201,-0.005l-0.2,-0.003l-0.2,-0.002l-0.201,0l-0.202,0Z" style="fill:#fcecdd;"/></g></svg>